<svg xmlns="http://www.w3.org/2000/svg" width="500" zoomAndPan="magnify" viewBox="0 0 375 374.999991" height="500" preserveAspectRatio="xMidYMid meet" version="1.0">
     <defs>
          <clipPath id="1c5fef8010">
          <path d="M 153 104.882812 L 269.882812 104.882812 L 269.882812 222 L 153 222 Z M 153 104.882812 " clip-rule="nonzero"/></clipPath>
          <clipPath id="5e53fc2057">
          <path d="M 104.882812 245 L 130 245 L 130 269.882812 L 104.882812 269.882812 Z M 104.882812 245 " clip-rule="nonzero"/></clipPath>
     </defs>

     <path stroke-linecap="butt" transform="matrix(0.75, 0, 0, 0.75, 0.0000045, 0)" fill="none" stroke-linejoin="miter" d="M -0.000006 0 L 500.000059 0 L 500.000059 500.000065 L -0.000006 500.000065 Z M -0.000006 0 " stroke="#ff5757" stroke-width="70" stroke-opacity="1" stroke-miterlimit="4"/>
     <path fill="#ff5757" d="M 129.667969 194.492188 L 159.539062 215.460938 L 180.507812 245.332031 L 172.246094 253.59375 L 121.40625 202.753906 Z M 129.667969 194.492188 " fill-opacity="1" fill-rule="nonzero"/>
     <g clip-path="url(#1c5fef8010)">
          <path fill="#ff5757" d="M 163.984375 211.015625 L 170.976562 221.816406 L 257.40625 143.015625 L 270.117188 104.882812 L 231.984375 117.59375 L 153.183594 204.023438 Z M 163.984375 211.015625 " fill-opacity="1" fill-rule="nonzero"/>
     </g>
     <path fill="#ff5757" d="M 116.957031 266.304688 L 108.695312 258.042969 L 142.378906 215.460938 L 159.539062 232.621094 Z M 116.957031 266.304688 " fill-opacity="1" fill-rule="nonzero"/>
     <g clip-path="url(#5e53fc2057)">
          <path fill="#ff5757" d="M 129.03125 258.042969 C 129.03125 258.835938 128.957031 259.621094 128.800781 260.398438 C 128.644531 261.175781 128.417969 261.929688 128.113281 262.664062 C 127.808594 263.394531 127.4375 264.089844 126.996094 264.75 C 126.558594 265.410156 126.054688 266.019531 125.496094 266.582031 C 124.933594 267.140625 124.324219 267.640625 123.667969 268.082031 C 123.007812 268.523438 122.3125 268.894531 121.578125 269.199219 C 120.847656 269.5 120.089844 269.730469 119.3125 269.886719 C 118.535156 270.039062 117.75 270.117188 116.957031 270.117188 C 116.164062 270.117188 115.378906 270.039062 114.601562 269.886719 C 113.824219 269.730469 113.070312 269.5 112.335938 269.199219 C 111.605469 268.894531 110.910156 268.523438 110.25 268.082031 C 109.589844 267.640625 108.980469 267.140625 108.417969 266.582031 C 107.859375 266.019531 107.359375 265.410156 106.917969 264.75 C 106.476562 264.089844 106.105469 263.394531 105.800781 262.664062 C 105.5 261.929688 105.269531 261.175781 105.113281 260.398438 C 104.960938 259.621094 104.882812 258.835938 104.882812 258.042969 C 104.882812 257.25 104.960938 256.464844 105.113281 255.6875 C 105.269531 254.910156 105.5 254.152344 105.800781 253.421875 C 106.105469 252.6875 106.476562 251.992188 106.917969 251.332031 C 107.359375 250.675781 107.859375 250.066406 108.417969 249.503906 C 108.980469 248.945312 109.589844 248.441406 110.25 248.003906 C 110.910156 247.5625 111.605469 247.191406 112.335938 246.886719 C 113.070312 246.582031 113.824219 246.355469 114.601562 246.199219 C 115.378906 246.042969 116.164062 245.96875 116.957031 245.96875 C 117.75 245.96875 118.535156 246.042969 119.3125 246.199219 C 120.089844 246.355469 120.847656 246.582031 121.578125 246.886719 C 122.3125 247.191406 123.007812 247.5625 123.667969 248.003906 C 124.324219 248.441406 124.933594 248.945312 125.496094 249.503906 C 126.054688 250.066406 126.558594 250.675781 126.996094 251.332031 C 127.4375 251.992188 127.808594 252.6875 128.113281 253.421875 C 128.417969 254.152344 128.644531 254.910156 128.800781 255.6875 C 128.957031 256.464844 129.03125 257.25 129.03125 258.042969 Z M 129.03125 258.042969 " fill-opacity="1" fill-rule="nonzero"/>
     </g>
</svg>