<svg xmlns="http://www.w3.org/2000/svg" xmlns:xlink="http://www.w3.org/1999/xlink" width="500" zoomAndPan="magnify" viewBox="0 0 375 374.999991" height="500" preserveAspectRatio="xMidYMid meet" version="1.0">
    <defs>
        <clipPath id="a32896739e">
            <path d="M 3.515625 174 L 289 174 L 289 375 L 3.515625 375 Z M 3.515625 174 " clip-rule="nonzero"/>
        </clipPath>
        <clipPath id="b88274bdb3">
            <path d="M 86 0 L 371.765625 0 L 371.765625 201 L 86 201 Z M 86 0 " clip-rule="nonzero"/>
        </clipPath>
    </defs>

    <g clip-path="url(#a32896739e)">
        <path fill="#0dff8a" d="M 4.328125 174.132812 C 4.328125 174.132812 4.277344 175.285156 4.183594 177.472656 C 4.136719 178.566406 4.082031 179.914062 4.015625 181.511719 C 3.964844 183.105469 4.019531 184.945312 4.019531 187.011719 C 4.105469 198.628906 5.3125 210.132812 7.636719 221.515625 C 8.015625 223.296875 8.351562 225.128906 8.792969 226.980469 C 9.265625 228.824219 9.75 230.707031 10.242188 232.625 C 10.5 233.582031 10.710938 234.558594 11.015625 235.519531 C 11.3125 236.484375 11.613281 237.457031 11.914062 238.4375 C 12.21875 239.417969 12.523438 240.410156 12.832031 241.40625 C 13.140625 242.40625 13.433594 243.417969 13.816406 244.410156 C 14.539062 246.40625 15.269531 248.433594 16.015625 250.492188 C 16.371094 251.53125 16.8125 252.539062 17.238281 253.566406 C 17.664062 254.59375 18.09375 255.625 18.527344 256.664062 C 18.964844 257.699219 19.402344 258.746094 19.84375 259.796875 C 20.332031 260.828125 20.824219 261.867188 21.316406 262.910156 C 21.8125 263.953125 22.308594 265.003906 22.8125 266.058594 C 23.0625 266.585938 23.316406 267.113281 23.566406 267.644531 C 23.84375 268.164062 24.121094 268.683594 24.398438 269.207031 C 25.515625 271.289062 26.628906 273.40625 27.789062 275.523438 C 29.027344 277.597656 30.277344 279.691406 31.539062 281.808594 C 32.148438 282.878906 32.863281 283.890625 33.542969 284.929688 C 34.230469 285.964844 34.917969 287.003906 35.613281 288.046875 C 36.957031 290.164062 38.503906 292.164062 40.003906 294.21875 C 46.234375 302.625 53.136719 310.445312 60.703125 317.675781 C 76.09375 332.449219 94.855469 344.695312 114.925781 353.167969 C 117.449219 354.191406 119.929688 355.320312 122.507812 356.179688 C 123.785156 356.636719 125.058594 357.09375 126.335938 357.550781 C 127.613281 358 128.875 358.488281 130.175781 358.851562 C 132.761719 359.628906 135.339844 360.402344 137.914062 361.175781 C 140.519531 361.820312 143.117188 362.464844 145.703125 363.105469 C 155.921875 365.390625 166.257812 366.796875 176.714844 367.320312 C 177.988281 367.371094 179.253906 367.425781 180.519531 367.476562 C 181.148438 367.503906 181.78125 367.527344 182.410156 367.554688 C 183.039062 367.550781 183.667969 367.546875 184.296875 367.539062 C 186.804688 367.511719 189.296875 367.527344 191.761719 367.453125 C 194.222656 367.3125 196.664062 367.175781 199.082031 367.035156 L 199.984375 366.984375 L 200.886719 366.890625 C 201.484375 366.824219 202.082031 366.761719 202.675781 366.699219 C 203.867188 366.570312 205.054688 366.445312 206.234375 366.320312 C 208.597656 366.113281 210.910156 365.707031 213.199219 365.355469 C 214.34375 365.175781 215.480469 364.996094 216.613281 364.820312 C 217.179688 364.742188 217.738281 364.625 218.296875 364.507812 C 218.855469 364.394531 219.410156 364.277344 219.964844 364.164062 C 221.070312 363.9375 222.171875 363.710938 223.261719 363.484375 C 223.808594 363.371094 224.351562 363.257812 224.894531 363.144531 C 225.4375 363.035156 225.980469 362.925781 226.511719 362.777344 C 228.640625 362.230469 230.742188 361.6875 232.8125 361.15625 C 233.328125 361.019531 233.84375 360.898438 234.355469 360.75 C 234.863281 360.59375 235.367188 360.4375 235.867188 360.285156 C 236.871094 359.972656 237.871094 359.664062 238.859375 359.359375 C 239.847656 359.054688 240.824219 358.75 241.796875 358.449219 C 242.285156 358.308594 242.761719 358.140625 243.234375 357.964844 C 243.710938 357.792969 244.179688 357.621094 244.652344 357.449219 C 246.527344 356.769531 248.371094 356.101562 250.179688 355.445312 C 251.96875 354.738281 253.699219 353.988281 255.402344 353.285156 C 256.253906 352.925781 257.09375 352.574219 257.925781 352.226562 C 258.765625 351.894531 259.554688 351.472656 260.355469 351.105469 C 261.945312 350.351562 263.5 349.609375 265.015625 348.890625 C 265.394531 348.710938 265.769531 348.53125 266.144531 348.351562 C 266.515625 348.167969 266.875 347.96875 267.234375 347.777344 C 267.953125 347.390625 268.664062 347.011719 269.367188 346.636719 C 270.765625 345.886719 272.125 345.160156 273.441406 344.453125 C 274.777344 343.703125 276.179688 342.832031 277.605469 342.082031 C 278.957031 341.347656 280.355469 340.722656 281.804688 340.199219 C 284.441406 339.207031 286.800781 339.136719 288.160156 341.207031 C 289.523438 343.277344 288.441406 345.433594 286.304688 347.511719 C 285.09375 348.578125 283.796875 349.527344 282.417969 350.359375 C 280.976562 351.253906 279.476562 352.132812 278.050781 352.886719 C 276.640625 353.59375 275.191406 354.320312 273.695312 355.074219 C 272.949219 355.445312 272.191406 355.824219 271.421875 356.210938 C 271.035156 356.398438 270.652344 356.601562 270.257812 356.785156 C 269.859375 356.960938 269.460938 357.140625 269.058594 357.320312 C 267.445312 358.035156 265.789062 358.769531 264.097656 359.519531 C 263.242188 359.882812 262.402344 360.300781 261.511719 360.628906 C 260.628906 360.972656 259.738281 361.320312 258.832031 361.671875 C 257.023438 362.363281 255.1875 363.105469 253.292969 363.792969 C 251.378906 364.433594 249.429688 365.085938 247.441406 365.75 C 246.945312 365.917969 246.445312 366.082031 245.945312 366.25 C 245.445312 366.421875 244.9375 366.582031 244.421875 366.71875 C 243.398438 367.007812 242.363281 367.300781 241.320312 367.597656 C 240.277344 367.890625 239.222656 368.183594 238.164062 368.484375 C 237.632812 368.632812 237.101562 368.78125 236.566406 368.929688 C 236.03125 369.070312 235.484375 369.1875 234.941406 369.316406 C 232.761719 369.816406 230.550781 370.328125 228.304688 370.84375 C 227.746094 370.980469 227.179688 371.085938 226.609375 371.183594 C 226.039062 371.289062 225.464844 371.390625 224.890625 371.496094 C 223.742188 371.703125 222.589844 371.910156 221.425781 372.121094 C 220.84375 372.226562 220.261719 372.332031 219.675781 372.433594 C 219.089844 372.542969 218.503906 372.648438 217.910156 372.714844 C 216.722656 372.871094 215.53125 373.027344 214.332031 373.1875 C 211.929688 373.492188 209.507812 373.855469 207.035156 374.011719 C 205.804688 374.113281 204.566406 374.210938 203.320312 374.3125 C 202.695312 374.363281 202.074219 374.414062 201.449219 374.464844 L 200.507812 374.539062 L 199.5625 374.570312 C 197.042969 374.652344 194.496094 374.734375 191.929688 374.816406 C 189.359375 374.828125 186.769531 374.75 184.160156 374.714844 C 183.507812 374.703125 182.855469 374.691406 182.199219 374.679688 C 181.546875 374.636719 180.890625 374.59375 180.234375 374.550781 C 178.925781 374.464844 177.609375 374.375 176.285156 374.289062 C 165.464844 373.480469 154.785156 371.761719 144.257812 369.132812 C 141.597656 368.40625 138.933594 367.675781 136.257812 366.945312 C 133.621094 366.082031 130.980469 365.214844 128.332031 364.347656 C 127 363.941406 125.707031 363.40625 124.402344 362.914062 C 123.101562 362.410156 121.796875 361.90625 120.492188 361.40625 C 117.863281 360.453125 115.332031 359.234375 112.761719 358.113281 C 92.3125 348.890625 73.390625 335.855469 58.042969 320.398438 C 50.511719 312.847656 43.675781 304.71875 37.53125 296.003906 C 36.058594 293.878906 34.535156 291.808594 33.21875 289.628906 C 32.542969 288.550781 31.867188 287.480469 31.195312 286.414062 C 30.527344 285.339844 29.832031 284.296875 29.238281 283.195312 C 28.011719 281.023438 26.792969 278.867188 25.589844 276.734375 C 24.464844 274.558594 23.386719 272.390625 22.308594 270.253906 C 22.039062 269.71875 21.769531 269.183594 21.503906 268.652344 C 21.261719 268.109375 21.019531 267.570312 20.777344 267.027344 C 20.292969 265.949219 19.816406 264.875 19.339844 263.808594 C 18.863281 262.738281 18.394531 261.679688 17.925781 260.625 C 17.503906 259.550781 17.085938 258.484375 16.671875 257.425781 C 16.257812 256.363281 15.847656 255.308594 15.441406 254.265625 C 15.035156 253.21875 14.613281 252.1875 14.28125 251.132812 C 13.578125 249.035156 12.886719 246.96875 12.207031 244.9375 C 11.847656 243.925781 11.574219 242.898438 11.285156 241.886719 C 11 240.871094 10.714844 239.867188 10.433594 238.871094 C 10.152344 237.875 9.871094 236.886719 9.597656 235.90625 C 9.3125 234.929688 9.121094 233.941406 8.882812 232.972656 C 8.433594 231.027344 7.996094 229.121094 7.5625 227.253906 C 7.164062 225.378906 6.867188 223.527344 6.53125 221.726562 C 4.464844 210.246094 3.527344 198.671875 3.714844 187.011719 C 3.761719 184.941406 3.753906 183.097656 3.839844 181.503906 C 3.945312 179.910156 4.035156 178.558594 4.105469 177.46875 Z M 4.328125 174.132812 " fill-opacity="1" fill-rule="nonzero"/>
    </g>
    <path fill="#9fb0ff" d="M 31.222656 133.785156 C 31.222656 133.785156 30.921875 134.78125 30.355469 136.667969 C 30.070312 137.609375 29.71875 138.777344 29.304688 140.152344 C 29.105469 140.84375 28.847656 141.574219 28.65625 142.375 C 28.457031 143.179688 28.25 144.03125 28.027344 144.933594 C 25.386719 155.050781 23.78125 165.332031 23.210938 175.769531 C 23.144531 177.40625 23.074219 179.078125 23.003906 180.789062 C 22.894531 182.5 22.941406 184.246094 22.953125 186.027344 C 22.960938 186.917969 22.96875 187.816406 22.976562 188.722656 C 22.980469 189.175781 22.984375 189.632812 22.988281 190.089844 L 22.992188 190.777344 L 23.035156 191.46875 C 23.140625 193.308594 23.25 195.1875 23.359375 197.09375 C 23.386719 197.570312 23.414062 198.046875 23.441406 198.527344 C 23.46875 199.007812 23.539062 199.488281 23.585938 199.96875 C 23.691406 200.933594 23.792969 201.90625 23.898438 202.886719 C 24.117188 204.84375 24.28125 206.832031 24.640625 208.828125 C 24.964844 210.828125 25.257812 212.859375 25.609375 214.90625 C 26.03125 216.941406 26.460938 219 26.890625 221.082031 C 28.859375 229.726562 31.488281 238.167969 34.769531 246.402344 C 35.210938 247.457031 35.65625 248.519531 36.101562 249.582031 L 36.769531 251.179688 C 36.992188 251.710938 37.207031 252.25 37.46875 252.769531 C 38.464844 254.867188 39.46875 256.972656 40.480469 259.097656 C 41.585938 261.167969 42.699219 263.253906 43.820312 265.347656 L 44.238281 266.132812 C 44.382812 266.394531 44.542969 266.644531 44.695312 266.902344 L 45.613281 268.433594 C 46.226562 269.457031 46.84375 270.480469 47.457031 271.511719 C 52.582031 279.78125 58.394531 287.539062 64.894531 294.78125 C 71.460938 302.097656 78.632812 308.765625 86.40625 314.785156 L 89.339844 316.980469 C 90.328125 317.703125 91.269531 318.480469 92.296875 319.136719 C 94.324219 320.492188 96.328125 321.871094 98.355469 323.207031 C 100.429688 324.460938 102.5 325.710938 104.566406 326.960938 C 106.664062 328.144531 108.800781 329.246094 110.902344 330.394531 C 119.273438 334.683594 127.941406 338.25 136.90625 341.09375 C 145.628906 343.921875 154.359375 345.746094 162.777344 346.960938 C 166.980469 347.648438 171.140625 347.914062 175.179688 348.289062 C 179.234375 348.429688 183.179688 348.6875 187.015625 348.558594 C 190.851562 348.609375 194.558594 348.277344 198.136719 348.09375 C 199.921875 347.953125 201.667969 347.71875 203.386719 347.546875 C 204.242188 347.453125 205.089844 347.363281 205.933594 347.273438 C 206.773438 347.195312 207.59375 347.023438 208.414062 346.90625 C 210.050781 346.644531 211.648438 346.394531 213.210938 346.144531 C 213.996094 346.039062 214.761719 345.875 215.515625 345.714844 C 216.269531 345.554688 217.015625 345.398438 217.753906 345.242188 C 219.226562 344.929688 220.667969 344.652344 222.054688 344.335938 C 223.433594 343.976562 224.773438 343.625 226.074219 343.285156 C 226.742188 343.117188 227.433594 342.941406 228.132812 342.765625 C 228.484375 342.683594 228.835938 342.601562 229.191406 342.519531 C 229.542969 342.425781 229.894531 342.335938 230.246094 342.242188 C 231.582031 341.882812 232.9375 341.65625 234.320312 341.554688 C 235.484375 341.453125 236.613281 341.613281 237.707031 342.035156 C 237.949219 342.148438 238.179688 342.285156 238.394531 342.445312 C 238.609375 342.605469 238.804688 342.785156 238.980469 342.984375 C 239.160156 343.1875 239.316406 343.402344 239.449219 343.632812 C 239.582031 343.867188 239.6875 344.109375 239.769531 344.363281 C 239.855469 344.621094 239.910156 344.878906 239.9375 345.144531 C 239.96875 345.410156 239.96875 345.679688 239.941406 345.945312 C 239.917969 346.210938 239.863281 346.472656 239.785156 346.726562 C 239.707031 346.980469 239.601562 347.226562 239.46875 347.460938 C 238.933594 348.382812 237.980469 349.101562 236.8125 349.765625 C 235.523438 350.453125 234.183594 351.023438 232.792969 351.46875 C 232.429688 351.589844 232.066406 351.714844 231.695312 351.820312 C 231.320312 351.914062 230.949219 352.007812 230.578125 352.101562 C 229.832031 352.277344 229.09375 352.449219 228.386719 352.613281 C 227 352.929688 225.570312 353.257812 224.097656 353.59375 C 222.613281 353.886719 221.082031 354.136719 219.515625 354.421875 C 218.730469 354.5625 217.9375 354.703125 217.132812 354.847656 C 216.328125 354.996094 215.515625 355.144531 214.683594 355.234375 C 213.023438 355.449219 211.328125 355.667969 209.59375 355.890625 C 208.722656 355.988281 207.851562 356.144531 206.960938 356.199219 C 206.070312 356.269531 205.171875 356.34375 204.261719 356.414062 C 202.445312 356.546875 200.597656 356.738281 198.710938 356.828125 C 194.929688 356.921875 191.019531 357.152344 186.980469 356.988281 C 182.941406 357.003906 178.796875 356.628906 174.546875 356.355469 C 170.3125 355.847656 165.960938 355.441406 161.578125 354.601562 C 152.792969 353.082031 143.722656 350.917969 134.714844 347.726562 C 125.472656 344.515625 116.558594 340.558594 107.976562 335.859375 C 105.824219 334.613281 103.640625 333.40625 101.5 332.117188 C 99.394531 330.769531 97.285156 329.414062 95.167969 328.054688 C 93.105469 326.617188 91.070312 325.132812 89.015625 323.671875 C 87.96875 322.964844 87.015625 322.136719 86.015625 321.363281 L 83.042969 319.007812 C 75.261719 312.636719 68.105469 305.628906 61.578125 297.976562 C 55.046875 290.324219 49.253906 282.152344 44.191406 273.464844 C 43.589844 272.398438 42.988281 271.332031 42.390625 270.269531 L 41.492188 268.679688 C 41.34375 268.414062 41.1875 268.152344 41.046875 267.882812 L 40.640625 267.066406 C 39.554688 264.898438 38.472656 262.742188 37.398438 260.59375 C 36.425781 258.402344 35.460938 256.226562 34.5 254.0625 C 34.25 253.523438 34.046875 252.96875 33.832031 252.421875 L 33.195312 250.773438 C 32.769531 249.679688 32.347656 248.589844 31.925781 247.5 C 28.808594 239.042969 26.371094 230.398438 24.601562 221.5625 C 24.21875 219.441406 23.84375 217.34375 23.46875 215.269531 C 23.167969 213.1875 22.925781 211.121094 22.652344 209.089844 C 22.339844 207.0625 22.226562 205.042969 22.058594 203.058594 C 21.980469 202.066406 21.898438 201.082031 21.820312 200.105469 C 21.785156 199.617188 21.726562 199.132812 21.714844 198.644531 C 21.699219 198.160156 21.683594 197.675781 21.671875 197.191406 C 21.609375 195.265625 21.550781 193.367188 21.488281 191.503906 L 21.46875 190.808594 L 21.480469 190.113281 C 21.488281 189.652344 21.496094 189.191406 21.507812 188.734375 C 21.523438 187.820312 21.539062 186.914062 21.554688 186.015625 C 21.585938 184.21875 21.589844 182.457031 21.746094 180.738281 C 21.859375 179.019531 21.972656 177.335938 22.085938 175.6875 C 22.933594 165.222656 24.816406 154.945312 27.734375 144.855469 C 27.980469 143.957031 28.210938 143.109375 28.429688 142.3125 C 28.644531 141.511719 28.921875 140.789062 29.136719 140.101562 C 29.589844 138.738281 29.972656 137.578125 30.28125 136.644531 C 30.898438 134.769531 31.222656 133.785156 31.222656 133.785156 Z M 31.222656 133.785156 " fill-opacity="1" fill-rule="nonzero"/>
    <g clip-path="url(#b88274bdb3)">
        <path fill="#bf9fff" d="M 370.980469 200.859375 C 370.980469 200.859375 371.03125 199.707031 371.125 197.519531 C 371.171875 196.425781 371.226562 195.074219 371.296875 193.480469 C 371.347656 191.886719 371.292969 190.046875 371.289062 187.980469 C 371.203125 176.359375 370 164.859375 367.671875 153.476562 C 367.292969 151.695312 366.957031 149.859375 366.515625 148.007812 C 366.042969 146.167969 365.5625 144.285156 365.070312 142.367188 C 364.8125 141.410156 364.601562 140.433594 364.292969 139.46875 C 363.996094 138.507812 363.699219 137.535156 363.394531 136.550781 C 363.09375 135.570312 362.789062 134.582031 362.480469 133.582031 C 362.167969 132.585938 361.875 131.574219 361.496094 130.582031 C 360.773438 128.585938 360.039062 126.558594 359.292969 124.496094 C 358.941406 123.460938 358.496094 122.449219 358.074219 121.421875 C 357.644531 120.398438 357.214844 119.367188 356.78125 118.328125 C 356.347656 117.289062 355.90625 116.246094 355.464844 115.195312 C 354.980469 114.164062 354.488281 113.125 353.992188 112.082031 C 353.496094 111.039062 353 109.988281 352.5 108.933594 C 352.246094 108.40625 351.996094 107.875 351.742188 107.34375 C 351.464844 106.828125 351.1875 106.304688 350.910156 105.785156 C 349.792969 103.699219 348.679688 101.585938 347.519531 99.464844 C 346.285156 97.394531 345.03125 95.296875 343.769531 93.183594 C 343.160156 92.113281 342.449219 91.101562 341.765625 90.0625 C 341.082031 89.027344 340.390625 87.988281 339.695312 86.945312 C 338.351562 84.828125 336.804688 82.828125 335.308594 80.769531 C 329.074219 72.363281 322.175781 64.546875 314.605469 57.316406 C 299.21875 42.542969 280.453125 30.296875 260.382812 21.824219 C 257.859375 20.796875 255.378906 19.671875 252.804688 18.8125 L 248.972656 17.441406 C 247.699219 16.992188 246.4375 16.503906 245.132812 16.140625 C 242.546875 15.363281 239.96875 14.589844 237.398438 13.816406 C 234.792969 13.171875 232.195312 12.527344 229.605469 11.886719 C 219.390625 9.597656 209.050781 8.195312 198.59375 7.671875 C 197.324219 7.621094 196.054688 7.566406 194.792969 7.515625 C 194.160156 7.488281 193.53125 7.460938 192.898438 7.4375 C 192.269531 7.441406 191.640625 7.445312 191.015625 7.449219 C 188.503906 7.480469 186.015625 7.464844 183.550781 7.535156 C 181.089844 7.675781 178.648438 7.816406 176.230469 7.953125 L 175.324219 8.007812 L 174.425781 8.101562 C 173.824219 8.164062 173.230469 8.226562 172.632812 8.292969 C 171.441406 8.417969 170.257812 8.546875 169.078125 8.671875 C 166.714844 8.875 164.402344 9.285156 162.109375 9.636719 C 160.964844 9.816406 159.828125 9.992188 158.695312 10.171875 C 158.128906 10.25 157.570312 10.363281 157.011719 10.480469 C 156.457031 10.597656 155.902344 10.710938 155.347656 10.824219 C 154.238281 11.054688 153.140625 11.28125 152.046875 11.507812 C 151.5 11.621094 150.957031 11.734375 150.414062 11.84375 C 149.871094 11.953125 149.332031 12.066406 148.800781 12.210938 C 146.667969 12.761719 144.570312 13.300781 142.5 13.835938 C 141.980469 13.96875 141.464844 14.09375 140.957031 14.238281 C 140.449219 14.394531 139.945312 14.550781 139.441406 14.707031 C 138.4375 15.015625 137.441406 15.324219 136.453125 15.632812 C 135.464844 15.9375 134.484375 16.242188 133.511719 16.542969 C 133.023438 16.683594 132.546875 16.851562 132.074219 17.027344 C 131.601562 17.199219 131.128906 17.371094 130.660156 17.539062 C 128.78125 18.222656 126.9375 18.890625 125.132812 19.546875 C 123.34375 20.25 121.613281 21.003906 119.90625 21.707031 C 119.058594 22.0625 118.214844 22.414062 117.382812 22.761719 C 116.546875 23.097656 115.757812 23.519531 114.953125 23.882812 C 113.363281 24.640625 111.808594 25.378906 110.292969 26.101562 C 109.914062 26.28125 109.539062 26.460938 109.167969 26.636719 C 108.796875 26.820312 108.4375 27.023438 108.074219 27.214844 C 107.355469 27.597656 106.644531 27.980469 105.945312 28.355469 C 104.546875 29.105469 103.1875 29.832031 101.867188 30.539062 C 100.53125 31.289062 99.132812 32.160156 97.703125 32.90625 C 96.351562 33.640625 94.953125 34.269531 93.503906 34.789062 C 90.871094 35.785156 88.507812 35.855469 87.148438 33.785156 C 85.789062 31.714844 86.871094 29.558594 89.003906 27.480469 C 90.214844 26.414062 91.511719 25.464844 92.894531 24.628906 C 94.335938 23.734375 95.832031 22.855469 97.261719 22.105469 C 98.667969 21.398438 100.121094 20.667969 101.613281 19.917969 C 102.363281 19.542969 103.121094 19.164062 103.890625 18.78125 C 104.273438 18.589844 104.65625 18.390625 105.050781 18.207031 C 105.449219 18.027344 105.851562 17.851562 106.253906 17.671875 C 107.867188 16.957031 109.519531 16.222656 111.214844 15.46875 C 112.066406 15.109375 112.90625 14.691406 113.796875 14.363281 C 114.679688 14.019531 115.574219 13.671875 116.476562 13.320312 C 118.285156 12.625 120.121094 11.886719 122.015625 11.195312 C 123.929688 10.558594 125.882812 9.90625 127.871094 9.238281 C 128.367188 9.074219 128.867188 8.910156 129.367188 8.742188 C 129.867188 8.570312 130.371094 8.410156 130.886719 8.269531 C 131.914062 7.980469 132.949219 7.6875 133.992188 7.394531 C 135.035156 7.101562 136.085938 6.804688 137.144531 6.507812 C 137.675781 6.359375 138.207031 6.210938 138.742188 6.058594 C 139.28125 5.921875 139.824219 5.804688 140.371094 5.675781 C 142.546875 5.175781 144.761719 4.664062 147.003906 4.148438 C 147.5625 4.007812 148.132812 3.90625 148.703125 3.804688 C 149.273438 3.703125 149.84375 3.597656 150.417969 3.496094 C 151.566406 3.289062 152.722656 3.078125 153.882812 2.871094 C 154.464844 2.765625 155.050781 2.660156 155.632812 2.554688 C 156.21875 2.449219 156.804688 2.34375 157.398438 2.273438 C 158.585938 2.117188 159.777344 1.960938 160.980469 1.804688 C 163.378906 1.496094 165.800781 1.136719 168.273438 0.980469 C 169.503906 0.878906 170.746094 0.777344 171.992188 0.675781 C 172.613281 0.625 173.238281 0.578125 173.863281 0.527344 L 174.800781 0.453125 L 175.746094 0.421875 C 178.269531 0.339844 180.8125 0.257812 183.382812 0.175781 C 185.949219 0.164062 188.539062 0.242188 191.148438 0.277344 C 191.800781 0.289062 192.457031 0.300781 193.109375 0.3125 C 193.761719 0.355469 194.417969 0.398438 195.074219 0.441406 C 196.386719 0.527344 197.703125 0.613281 199.023438 0.703125 C 209.847656 1.507812 220.523438 3.226562 231.054688 5.859375 C 233.710938 6.585938 236.378906 7.316406 239.054688 8.046875 L 246.980469 10.640625 C 248.3125 11.050781 249.601562 11.582031 250.90625 12.078125 C 252.210938 12.582031 253.511719 13.082031 254.816406 13.585938 C 257.449219 14.539062 259.976562 15.757812 262.546875 16.878906 C 283 26.101562 301.921875 39.136719 317.265625 54.59375 C 324.796875 62.140625 331.636719 70.273438 337.78125 78.984375 C 339.253906 81.113281 340.773438 83.183594 342.089844 85.363281 C 342.769531 86.441406 343.441406 87.511719 344.117188 88.578125 C 344.78125 89.648438 345.476562 90.695312 346.070312 91.792969 C 347.300781 93.96875 348.515625 96.121094 349.722656 98.253906 C 350.84375 100.429688 351.921875 102.601562 353.003906 104.738281 C 353.269531 105.273438 353.539062 105.804688 353.804688 106.335938 C 354.050781 106.878906 354.292969 107.421875 354.535156 107.960938 C 355.015625 109.042969 355.496094 110.117188 355.96875 111.183594 C 356.445312 112.25 356.917969 113.3125 357.386719 114.367188 C 357.804688 115.441406 358.222656 116.507812 358.640625 117.566406 C 359.050781 118.628906 359.460938 119.679688 359.871094 120.726562 C 360.273438 121.773438 360.695312 122.804688 361.027344 123.859375 C 361.730469 125.957031 362.421875 128.019531 363.105469 130.054688 C 363.464844 131.0625 363.734375 132.09375 364.023438 133.105469 C 364.3125 134.117188 364.597656 135.125 364.878906 136.121094 C 365.160156 137.117188 365.4375 138.105469 365.714844 139.082031 C 366 140.058594 366.1875 141.050781 366.425781 142.019531 C 366.875 143.964844 367.316406 145.871094 367.746094 147.738281 C 368.144531 149.609375 368.441406 151.464844 368.78125 153.265625 C 370.84375 164.746094 371.785156 176.316406 371.59375 187.980469 C 371.546875 190.050781 371.558594 191.890625 371.46875 193.488281 C 371.363281 195.082031 371.277344 196.429688 371.203125 197.523438 C 371.058594 199.707031 370.980469 200.859375 370.980469 200.859375 Z M 370.980469 200.859375 " fill-opacity="1" fill-rule="nonzero"/>
    </g>
    <path
        fill="#ffa4a4"
        d="M 344.089844 241.207031 C 344.089844 241.207031 344.386719 240.210938 344.953125 238.324219 C 345.238281 237.378906 345.589844 236.214844 346.007812 234.839844 C 346.203125 234.148438 346.460938 233.417969 346.652344 232.613281 C 346.851562 231.8125 347.0625 230.960938 347.285156 230.054688 C 349.921875 219.9375 351.527344 209.660156 352.101562 199.222656 C 352.167969 197.585938 352.234375 195.910156 352.304688 194.199219 C 352.414062 192.492188 352.371094 190.746094 352.355469 188.964844 C 352.347656 188.074219 352.339844 187.175781 352.332031 186.269531 C 352.328125 185.816406 352.324219 185.359375 352.324219 184.902344 L 352.316406 184.214844 L 352.277344 183.523438 C 352.167969 181.679688 352.058594 179.804688 351.949219 177.898438 C 351.921875 177.421875 351.894531 176.941406 351.867188 176.460938 C 351.84375 175.980469 351.769531 175.503906 351.722656 175.019531 C 351.621094 174.054688 351.515625 173.085938 351.410156 172.105469 C 351.191406 170.148438 351.027344 168.15625 350.667969 166.160156 C 350.34375 164.164062 350.050781 162.132812 349.699219 160.085938 C 349.277344 158.050781 348.851562 155.992188 348.417969 153.910156 C 346.449219 145.265625 343.824219 136.824219 340.539062 128.589844 C 340.097656 127.53125 339.652344 126.472656 339.207031 125.410156 L 338.539062 123.8125 C 338.316406 123.277344 338.105469 122.738281 337.84375 122.222656 C 336.84375 120.125 335.839844 118.015625 334.832031 115.894531 C 333.722656 113.824219 332.609375 111.738281 331.492188 109.644531 L 331.070312 108.859375 C 330.925781 108.597656 330.765625 108.347656 330.617188 108.089844 L 329.695312 106.558594 C 329.082031 105.535156 328.46875 104.507812 327.851562 103.480469 C 322.726562 95.210938 316.917969 87.453125 310.417969 80.210938 C 303.851562 72.894531 296.679688 66.226562 288.90625 60.207031 L 285.96875 58.007812 C 284.984375 57.289062 284.042969 56.511719 283.011719 55.855469 C 280.984375 54.5 278.980469 53.117188 276.957031 51.785156 C 274.878906 50.53125 272.808594 49.28125 270.746094 48.03125 C 268.644531 46.847656 266.507812 45.742188 264.40625 44.597656 C 256.039062 40.304688 247.367188 36.738281 238.402344 33.898438 C 229.683594 31.066406 220.949219 29.246094 212.53125 28.027344 C 208.328125 27.339844 204.167969 27.078125 200.132812 26.699219 C 196.074219 26.558594 192.128906 26.304688 188.292969 26.433594 C 184.460938 26.382812 180.753906 26.714844 177.175781 26.898438 C 175.386719 27.035156 173.640625 27.273438 171.925781 27.445312 L 169.378906 27.71875 C 168.535156 27.792969 167.714844 27.96875 166.894531 28.085938 C 165.261719 28.34375 163.664062 28.597656 162.097656 28.84375 C 161.316406 28.953125 160.550781 29.113281 159.796875 29.277344 C 159.039062 29.4375 158.292969 29.59375 157.554688 29.746094 C 156.082031 30.0625 154.644531 30.339844 153.253906 30.65625 L 149.234375 31.703125 C 148.570312 31.871094 147.878906 32.046875 147.175781 32.226562 C 146.824219 32.308594 146.472656 32.390625 146.117188 32.472656 C 145.765625 32.566406 145.414062 32.65625 145.066406 32.746094 C 143.730469 33.105469 142.371094 33.335938 140.992188 33.4375 C 139.824219 33.535156 138.695312 33.375 137.601562 32.957031 C 137.359375 32.84375 137.128906 32.707031 136.914062 32.546875 C 136.703125 32.386719 136.503906 32.207031 136.328125 32.003906 C 136.152344 31.804688 135.996094 31.589844 135.863281 31.355469 C 135.730469 31.125 135.621094 30.878906 135.539062 30.625 C 135.457031 30.371094 135.402344 30.109375 135.371094 29.84375 C 135.34375 29.578125 135.339844 29.3125 135.367188 29.046875 C 135.394531 28.78125 135.445312 28.519531 135.523438 28.265625 C 135.605469 28.007812 135.710938 27.765625 135.839844 27.53125 C 136.375 26.609375 137.328125 25.886719 138.496094 25.222656 C 139.785156 24.535156 141.125 23.96875 142.515625 23.523438 C 142.878906 23.402344 143.246094 23.273438 143.617188 23.167969 C 143.988281 23.074219 144.363281 22.980469 144.734375 22.890625 C 145.480469 22.714844 146.214844 22.542969 146.925781 22.378906 C 148.3125 22.0625 149.742188 21.734375 151.214844 21.398438 C 152.695312 21.105469 154.226562 20.855469 155.796875 20.566406 C 156.578125 20.425781 157.375 20.285156 158.175781 20.140625 C 158.980469 19.996094 159.792969 19.847656 160.625 19.757812 C 162.285156 19.542969 163.980469 19.324219 165.71875 19.101562 C 166.585938 19.003906 167.457031 18.847656 168.351562 18.789062 C 169.242188 18.71875 170.140625 18.648438 171.046875 18.574219 C 172.863281 18.445312 174.710938 18.253906 176.601562 18.160156 C 180.382812 18.070312 184.292969 17.839844 188.328125 18.003906 C 192.367188 17.984375 196.511719 18.363281 200.761719 18.636719 C 204.996094 19.144531 209.347656 19.550781 213.734375 20.390625 C 222.515625 21.910156 231.589844 24.070312 240.59375 27.265625 C 249.839844 30.476562 258.753906 34.429688 267.335938 39.128906 C 269.484375 40.378906 271.667969 41.585938 273.8125 42.871094 C 275.914062 44.222656 278.023438 45.578125 280.140625 46.9375 C 282.203125 48.371094 284.238281 49.859375 286.296875 51.316406 C 287.339844 52.023438 288.296875 52.855469 289.296875 53.628906 L 292.265625 55.980469 C 300.050781 62.351562 307.207031 69.363281 313.734375 77.015625 C 320.261719 84.667969 326.058594 92.835938 331.121094 101.523438 C 331.722656 102.59375 332.320312 103.660156 332.921875 104.722656 L 333.820312 106.3125 C 333.964844 106.578125 334.121094 106.839844 334.261719 107.109375 L 334.671875 107.921875 C 335.757812 110.09375 336.835938 112.25 337.910156 114.394531 C 338.882812 116.585938 339.847656 118.765625 340.808594 120.929688 C 341.0625 121.464844 341.265625 122.019531 341.476562 122.570312 L 342.117188 124.21875 C 342.539062 125.3125 342.964844 126.402344 343.386719 127.488281 C 346.5 135.945312 348.941406 144.59375 350.707031 153.429688 C 351.089844 155.550781 351.46875 157.648438 351.839844 159.71875 C 352.140625 161.804688 352.386719 163.867188 352.660156 165.898438 C 352.96875 167.925781 353.082031 169.945312 353.25 171.929688 C 353.332031 172.921875 353.410156 173.90625 353.488281 174.886719 C 353.523438 175.375 353.582031 175.859375 353.59375 176.34375 C 353.609375 176.832031 353.625 177.316406 353.640625 177.796875 C 353.699219 179.726562 353.761719 181.621094 353.820312 183.484375 L 353.84375 184.183594 L 353.828125 184.878906 C 353.820312 185.339844 353.8125 185.800781 353.804688 186.257812 C 353.789062 187.171875 353.769531 188.078125 353.753906 188.976562 C 353.722656 190.773438 353.722656 192.53125 353.566406 194.253906 C 353.449219 195.972656 353.335938 197.65625 353.226562 199.300781 C 352.375 209.769531 350.492188 220.046875 347.578125 230.132812 C 347.332031 231.03125 347.097656 231.882812 346.878906 232.679688 C 346.664062 233.476562 346.386719 234.203125 346.171875 234.890625 C 345.722656 236.253906 345.339844 237.410156 345.03125 238.347656 C 344.414062 240.21875 344.089844 241.207031 344.089844 241.207031 Z M 344.089844 241.207031 "
        fill-opacity="1"
        fill-rule="nonzero"/>
    <path fill="#ffa4a4" d="M 166.265625 331.949219 C 166.265625 331.949219 167.179688 332.058594 168.910156 332.261719 C 169.773438 332.363281 170.84375 332.488281 172.101562 332.632812 C 173.363281 332.769531 174.828125 332.832031 176.46875 332.953125 C 185.691406 333.570312 194.890625 333.289062 204.058594 332.117188 C 205.496094 331.921875 206.96875 331.761719 208.464844 331.523438 C 209.953125 331.257812 211.476562 330.984375 213.027344 330.707031 C 213.800781 330.558594 214.589844 330.449219 215.371094 330.265625 C 216.152344 330.085938 216.941406 329.90625 217.738281 329.722656 C 218.535156 329.542969 219.339844 329.359375 220.148438 329.171875 C 220.957031 328.984375 221.777344 328.8125 222.589844 328.570312 C 224.214844 328.113281 225.867188 327.652344 227.546875 327.183594 C 228.386719 326.964844 229.214844 326.671875 230.054688 326.398438 C 230.894531 326.117188 231.738281 325.839844 232.589844 325.554688 C 233.4375 325.273438 234.292969 324.988281 235.152344 324.699219 C 236 324.371094 236.851562 324.042969 237.710938 323.714844 C 238.566406 323.382812 239.429688 323.050781 240.296875 322.714844 C 240.730469 322.546875 241.164062 322.378906 241.597656 322.210938 C 242.027344 322.019531 242.457031 321.832031 242.886719 321.640625 C 250.113281 318.589844 257.035156 314.960938 263.652344 310.75 C 270.6875 306.308594 277.296875 301.300781 283.480469 295.730469 C 296.105469 284.410156 306.929688 270.261719 314.832031 254.859375 C 315.792969 252.921875 316.835938 251.023438 317.667969 249.03125 C 318.105469 248.046875 318.542969 247.0625 318.980469 246.078125 C 319.414062 245.09375 319.875 244.125 320.238281 243.113281 C 321.007812 241.109375 321.773438 239.113281 322.539062 237.121094 C 323.203125 235.09375 323.867188 233.074219 324.527344 231.0625 C 326.941406 223.101562 328.667969 214.996094 329.695312 206.742188 C 329.8125 205.734375 329.929688 204.734375 330.042969 203.738281 C 330.101562 203.238281 330.160156 202.738281 330.21875 202.242188 C 330.25 201.742188 330.285156 201.246094 330.316406 200.746094 C 330.441406 198.757812 330.601562 196.785156 330.6875 194.828125 C 330.722656 192.871094 330.753906 190.929688 330.785156 189.003906 C 330.824219 188.042969 330.746094 187.085938 330.730469 186.136719 C 330.699219 185.183594 330.667969 184.238281 330.640625 183.296875 C 330.617188 181.410156 330.425781 179.554688 330.285156 177.71875 C 330.207031 176.804688 330.132812 175.890625 330.058594 174.984375 C 329.996094 174.078125 329.839844 173.183594 329.738281 172.292969 C 329.492188 170.511719 329.300781 168.75 329.023438 167.023438 C 328.710938 165.304688 328.40625 163.605469 328.105469 161.933594 C 328.027344 161.519531 327.960938 161.101562 327.875 160.6875 C 327.78125 160.277344 327.6875 159.871094 327.59375 159.460938 C 327.40625 158.648438 327.21875 157.839844 327.035156 157.039062 C 326.851562 156.238281 326.667969 155.445312 326.488281 154.65625 C 326.320312 153.867188 326.066406 153.105469 325.863281 152.339844 C 325.433594 150.8125 325.007812 149.3125 324.59375 147.839844 C 324.140625 146.382812 323.644531 144.964844 323.1875 143.574219 C 322.726562 142.183594 322.285156 140.820312 321.75 139.523438 C 321.246094 138.21875 320.75 136.941406 320.269531 135.699219 C 319.8125 134.445312 319.234375 133.28125 318.734375 132.121094 C 318.222656 130.96875 317.726562 129.847656 317.242188 128.761719 C 316.171875 126.574219 314.917969 124.074219 314.359375 121.886719 C 313.726562 119.742188 313.808594 117.867188 315.53125 116.910156 C 317.253906 115.953125 318.902344 116.9375 320.425781 118.75 C 321.871094 120.601562 323.144531 123.277344 324.203125 125.609375 C 324.683594 126.765625 325.175781 127.957031 325.683594 129.1875 C 326.175781 130.421875 326.746094 131.664062 327.195312 132.996094 C 327.667969 134.3125 328.152344 135.667969 328.648438 137.054688 C 329.167969 138.429688 329.597656 139.875 330.046875 141.351562 C 330.488281 142.824219 330.96875 144.320312 331.402344 145.863281 C 331.796875 147.417969 332.203125 149 332.613281 150.617188 C 332.804688 151.425781 333.046875 152.230469 333.203125 153.0625 C 333.371094 153.894531 333.542969 154.730469 333.714844 155.574219 C 333.886719 156.417969 334.058594 157.269531 334.234375 158.125 C 334.320312 158.554688 334.40625 158.984375 334.496094 159.417969 C 334.574219 159.851562 334.632812 160.289062 334.703125 160.730469 C 334.972656 162.484375 335.25 164.265625 335.527344 166.074219 C 335.773438 167.886719 335.929688 169.734375 336.136719 171.601562 C 336.222656 172.535156 336.359375 173.472656 336.402344 174.421875 C 336.457031 175.371094 336.507812 176.324219 336.5625 177.285156 C 336.667969 179.203125 336.8125 181.144531 336.789062 183.113281 C 336.796875 184.09375 336.804688 185.082031 336.8125 186.074219 C 336.804688 187.066406 336.855469 188.0625 336.792969 189.066406 C 336.710938 191.066406 336.625 193.089844 336.539062 195.128906 C 336.398438 197.164062 336.183594 199.210938 336 201.277344 C 335.953125 201.792969 335.90625 202.308594 335.859375 202.828125 C 335.785156 203.34375 335.714844 203.859375 335.640625 204.378906 C 335.496094 205.410156 335.347656 206.449219 335.203125 207.492188 C 333.921875 216.019531 331.933594 224.375 329.226562 232.5625 C 328.492188 234.625 327.757812 236.695312 327.019531 238.773438 C 326.179688 240.808594 325.335938 242.851562 324.492188 244.898438 C 324.089844 245.929688 323.589844 246.921875 323.121094 247.925781 C 322.648438 248.929688 322.171875 249.933594 321.695312 250.9375 C 320.785156 252.964844 319.667969 254.894531 318.628906 256.867188 C 310.109375 272.527344 298.652344 286.75 285.484375 298 C 279.050781 303.523438 272.199219 308.460938 264.921875 312.816406 C 258.105469 316.921875 250.996094 320.4375 243.59375 323.359375 C 243.152344 323.542969 242.714844 323.722656 242.277344 323.902344 C 241.832031 324.066406 241.386719 324.226562 240.945312 324.386719 C 240.058594 324.703125 239.179688 325.019531 238.304688 325.332031 C 237.429688 325.648438 236.558594 325.957031 235.695312 326.265625 C 234.820312 326.539062 233.949219 326.804688 233.082031 327.074219 C 232.21875 327.335938 231.355469 327.601562 230.503906 327.859375 C 229.648438 328.121094 228.804688 328.394531 227.949219 328.59375 C 226.246094 329.027344 224.566406 329.453125 222.914062 329.875 C 222.089844 330.101562 221.257812 330.253906 220.4375 330.425781 C 219.617188 330.59375 218.800781 330.757812 217.992188 330.921875 C 217.1875 331.085938 216.386719 331.25 215.59375 331.410156 C 214.804688 331.578125 214.003906 331.671875 213.222656 331.800781 C 211.652344 332.042969 210.117188 332.28125 208.609375 332.511719 C 207.097656 332.71875 205.609375 332.84375 204.160156 333.007812 C 194.929688 333.96875 185.691406 334.03125 176.449219 333.195312 C 174.808594 333.035156 173.347656 332.933594 172.089844 332.769531 C 170.828125 332.59375 169.761719 332.445312 168.902344 332.324219 C 167.175781 332.078125 166.265625 331.949219 166.265625 331.949219 Z M 166.265625 331.949219 " fill-opacity="1" fill-rule="nonzero"/>
    <path fill="#0dff8a" d="M 135.835938 308.269531 C 135.835938 308.269531 136.605469 308.566406 138.070312 309.128906 C 138.804688 309.40625 139.707031 309.753906 140.773438 310.164062 C 141.3125 310.363281 141.875 310.609375 142.5 310.808594 C 143.125 311.011719 143.789062 311.230469 144.496094 311.457031 C 152.367188 314.144531 160.429688 316.019531 168.675781 317.089844 C 171.269531 317.359375 173.96875 317.773438 176.800781 317.894531 C 178.214844 317.972656 179.652344 318.109375 181.121094 318.152344 C 182.589844 318.175781 184.085938 318.199219 185.605469 318.222656 C 187.125 318.285156 188.667969 318.171875 190.234375 318.136719 C 191.800781 318.078125 193.390625 318.066406 194.992188 317.898438 C 196.597656 317.761719 198.226562 317.648438 199.871094 317.488281 C 201.511719 317.273438 203.167969 317.058594 204.847656 316.835938 C 218.214844 314.820312 232.558594 310.621094 246.070312 303.511719 C 252.933594 299.9375 259.433594 295.789062 265.5625 291.066406 C 271.753906 286.292969 277.464844 281.003906 282.699219 275.199219 C 287.882812 269.464844 292.492188 263.304688 296.527344 256.710938 C 300.421875 250.332031 303.761719 243.671875 306.546875 236.734375 C 309.179688 230.195312 311.238281 223.476562 312.722656 216.585938 C 313.515625 213.296875 313.96875 210.015625 314.507812 206.839844 C 314.855469 203.632812 315.292969 200.523438 315.414062 197.476562 C 315.679688 194.441406 315.636719 191.484375 315.699219 188.640625 C 315.695312 187.214844 315.613281 185.816406 315.578125 184.449219 C 315.554688 183.765625 315.53125 183.085938 315.507812 182.414062 C 315.496094 181.742188 315.40625 181.082031 315.363281 180.425781 C 315.253906 179.117188 315.148438 177.835938 315.042969 176.582031 C 315.003906 175.953125 314.917969 175.339844 314.835938 174.730469 C 314.753906 174.121094 314.671875 173.523438 314.59375 172.929688 C 314.429688 171.742188 314.296875 170.585938 314.125 169.46875 C 313.921875 168.355469 313.722656 167.273438 313.53125 166.222656 C 313.4375 165.683594 313.335938 165.125 313.238281 164.5625 C 313.195312 164.277344 313.148438 163.992188 313.105469 163.707031 L 312.949219 162.855469 C 312.742188 161.777344 312.640625 160.6875 312.640625 159.589844 C 312.628906 158.660156 312.824219 157.773438 313.222656 156.929688 C 313.433594 156.554688 313.707031 156.238281 314.050781 155.976562 C 314.394531 155.71875 314.773438 155.535156 315.191406 155.433594 C 315.609375 155.332031 316.03125 155.316406 316.453125 155.390625 C 316.878906 155.464844 317.269531 155.617188 317.628906 155.855469 C 318.332031 156.332031 318.847656 157.128906 319.304688 158.09375 C 319.773438 159.15625 320.144531 160.25 320.417969 161.378906 C 320.492188 161.675781 320.570312 161.972656 320.632812 162.269531 C 320.683594 162.574219 320.738281 162.875 320.789062 163.171875 C 320.882812 163.773438 320.976562 164.367188 321.066406 164.941406 C 321.238281 166.058594 321.410156 167.210938 321.59375 168.394531 C 321.738281 169.585938 321.847656 170.816406 321.980469 172.074219 C 322.046875 172.703125 322.113281 173.339844 322.179688 173.984375 C 322.25 174.632812 322.316406 175.285156 322.339844 175.949219 C 322.414062 177.277344 322.484375 178.632812 322.5625 180.023438 C 322.589844 180.714844 322.660156 181.414062 322.652344 182.125 C 322.65625 182.835938 322.660156 183.550781 322.664062 184.273438 C 322.660156 185.722656 322.703125 187.199219 322.664062 188.699219 C 322.519531 191.699219 322.46875 194.8125 322.101562 198 C 321.878906 201.199219 321.335938 204.460938 320.867188 207.8125 C 320.214844 211.136719 319.636719 214.5625 318.714844 217.984375 C 316.960938 225.144531 314.613281 232.101562 311.675781 238.863281 C 308.585938 245.996094 304.925781 252.828125 300.691406 259.351562 C 296.328125 266.066406 291.382812 272.320312 285.851562 278.109375 C 280.339844 283.902344 274.355469 289.160156 267.902344 293.882812 C 261.445312 298.601562 254.621094 302.714844 247.429688 306.214844 C 233.417969 313.117188 218.699219 316.996094 205.09375 318.679688 C 203.386719 318.855469 201.703125 319.03125 200.035156 319.207031 C 198.363281 319.324219 196.710938 319.394531 195.085938 319.492188 C 193.457031 319.617188 191.847656 319.589844 190.261719 319.605469 C 188.679688 319.597656 187.117188 319.671875 185.585938 319.570312 C 184.050781 319.503906 182.542969 319.441406 181.0625 319.375 C 179.582031 319.296875 178.132812 319.121094 176.707031 319.003906 C 173.855469 318.804688 171.148438 318.316406 168.546875 317.976562 C 160.292969 316.6875 152.25 314.589844 144.414062 311.6875 C 143.714844 311.4375 143.058594 311.203125 142.4375 310.984375 C 141.816406 310.769531 141.257812 310.503906 140.726562 310.292969 C 139.667969 309.855469 138.773438 309.484375 138.046875 309.183594 C 136.597656 308.585938 135.835938 308.269531 135.835938 308.269531 Z M 135.835938 308.269531 " fill-opacity="1" fill-rule="nonzero"/>
    <path fill="#0dff8a" d="M 209.042969 43.039062 C 209.042969 43.039062 208.132812 42.933594 206.402344 42.730469 C 205.535156 42.628906 204.46875 42.503906 203.207031 42.355469 C 201.945312 42.222656 200.480469 42.15625 198.84375 42.039062 C 189.617188 41.421875 180.421875 41.699219 171.25 42.875 C 169.816406 43.070312 168.339844 43.230469 166.847656 43.46875 C 165.355469 43.734375 163.835938 44.007812 162.28125 44.28125 C 161.507812 44.429688 160.722656 44.539062 159.941406 44.726562 C 159.15625 44.90625 158.367188 45.085938 157.570312 45.265625 C 156.773438 45.449219 155.972656 45.632812 155.160156 45.820312 C 154.351562 46.007812 153.53125 46.179688 152.722656 46.421875 C 151.09375 46.875 149.441406 47.339844 147.765625 47.808594 C 146.921875 48.027344 146.09375 48.316406 145.253906 48.59375 C 144.414062 48.871094 143.570312 49.152344 142.722656 49.433594 C 141.871094 49.71875 141.019531 50.003906 140.15625 50.292969 C 139.3125 50.617188 138.457031 50.945312 137.601562 51.277344 C 136.742188 51.609375 135.882812 51.941406 135.015625 52.273438 C 134.582031 52.445312 134.148438 52.613281 133.710938 52.78125 C 133.28125 52.96875 132.855469 53.160156 132.421875 53.347656 C 125.199219 56.402344 118.277344 60.03125 111.65625 64.238281 C 104.621094 68.683594 98.011719 73.6875 91.832031 79.257812 C 79.203125 90.582031 68.382812 104.726562 60.480469 120.132812 C 59.515625 122.070312 58.476562 123.96875 57.640625 125.957031 C 57.203125 126.945312 56.765625 127.929688 56.328125 128.910156 C 55.898438 129.894531 55.4375 130.867188 55.070312 131.878906 C 54.304688 133.878906 53.535156 135.878906 52.769531 137.871094 C 52.105469 139.898438 51.445312 141.917969 50.785156 143.929688 C 48.367188 151.890625 46.644531 159.996094 45.613281 168.25 C 45.496094 169.253906 45.382812 170.257812 45.265625 171.253906 C 45.207031 171.753906 45.148438 172.25 45.09375 172.746094 C 45.058594 173.246094 45.027344 173.746094 44.992188 174.242188 C 44.867188 176.234375 44.710938 178.203125 44.621094 180.160156 C 44.589844 182.121094 44.554688 184.0625 44.523438 185.984375 C 44.484375 186.945312 44.5625 187.902344 44.578125 188.855469 C 44.609375 189.804688 44.640625 190.753906 44.671875 191.695312 C 44.695312 193.578125 44.882812 195.433594 45.027344 197.269531 C 45.101562 198.1875 45.175781 199.101562 45.25 200.007812 C 45.3125 200.914062 45.46875 201.808594 45.574219 202.699219 C 45.816406 204.480469 46.007812 206.242188 46.289062 207.96875 C 46.597656 209.6875 46.902344 211.382812 47.203125 213.054688 C 47.28125 213.472656 47.347656 213.890625 47.433594 214.300781 C 47.527344 214.710938 47.621094 215.121094 47.714844 215.527344 C 47.902344 216.34375 48.089844 217.148438 48.273438 217.953125 C 48.457031 218.753906 48.640625 219.546875 48.824219 220.332031 C 48.992188 221.125 49.246094 221.886719 49.449219 222.652344 C 49.878906 224.179688 50.300781 225.679688 50.714844 227.152344 C 51.167969 228.609375 51.664062 230.023438 52.121094 231.414062 C 52.585938 232.804688 53.027344 234.171875 53.558594 235.46875 C 54.066406 236.773438 54.558594 238.046875 55.042969 239.289062 C 55.5 240.542969 56.078125 241.710938 56.574219 242.871094 C 57.085938 244.023438 57.585938 245.140625 58.070312 246.226562 C 59.136719 248.417969 60.390625 250.914062 60.949219 253.101562 C 61.582031 255.25 61.5 257.125 59.777344 258.082031 C 58.054688 259.035156 56.40625 258.050781 54.886719 256.238281 C 53.441406 254.390625 52.164062 251.714844 51.105469 249.382812 C 50.628906 248.226562 50.132812 247.03125 49.625 245.804688 C 49.136719 244.570312 48.5625 243.328125 48.117188 241.996094 C 47.644531 240.675781 47.160156 239.324219 46.664062 237.9375 C 46.140625 236.558594 45.714844 235.113281 45.265625 233.640625 C 44.820312 232.167969 44.34375 230.667969 43.90625 229.125 C 43.511719 227.574219 43.109375 225.988281 42.699219 224.375 C 42.503906 223.566406 42.261719 222.761719 42.105469 221.925781 C 41.9375 221.097656 41.765625 220.261719 41.59375 219.417969 C 41.421875 218.574219 41.25 217.722656 41.074219 216.863281 C 40.988281 216.4375 40.902344 216.003906 40.816406 215.574219 C 40.738281 215.140625 40.675781 214.699219 40.605469 214.261719 C 40.335938 212.507812 40.0625 210.722656 39.785156 208.914062 C 39.539062 207.105469 39.378906 205.253906 39.171875 203.390625 C 39.089844 202.453125 38.953125 201.519531 38.910156 200.570312 C 38.855469 199.621094 38.800781 198.667969 38.746094 197.707031 C 38.644531 195.785156 38.5 193.847656 38.519531 191.878906 C 38.511719 190.898438 38.507812 189.910156 38.5 188.917969 C 38.507812 187.921875 38.453125 186.925781 38.515625 185.925781 C 38.601562 183.921875 38.683594 181.902344 38.769531 179.863281 C 38.914062 177.828125 39.125 175.777344 39.308594 173.714844 C 39.355469 173.199219 39.402344 172.679688 39.453125 172.164062 C 39.523438 171.648438 39.597656 171.132812 39.667969 170.613281 C 39.816406 169.578125 39.960938 168.542969 40.109375 167.5 C 41.386719 158.972656 43.378906 150.617188 46.085938 142.429688 C 46.816406 140.367188 47.554688 138.296875 48.292969 136.21875 C 49.132812 134.183594 49.972656 132.140625 50.816406 130.09375 C 51.21875 129.0625 51.71875 128.070312 52.1875 127.066406 C 52.664062 126.0625 53.136719 125.058594 53.613281 124.054688 C 54.523438 122.027344 55.640625 120.09375 56.679688 118.125 C 65.203125 102.464844 76.660156 88.242188 89.824219 76.992188 C 96.257812 71.46875 103.113281 66.53125 110.386719 62.175781 C 117.203125 58.066406 124.3125 54.550781 131.714844 51.628906 C 132.15625 51.449219 132.59375 51.265625 133.03125 51.085938 C 133.476562 50.925781 133.921875 50.765625 134.363281 50.605469 C 135.25 50.289062 136.128906 49.972656 137.003906 49.65625 C 137.878906 49.34375 138.75 49.03125 139.613281 48.722656 C 140.492188 48.453125 141.363281 48.183594 142.226562 47.917969 C 143.09375 47.652344 143.953125 47.390625 144.804688 47.128906 C 145.660156 46.871094 146.503906 46.597656 147.359375 46.394531 C 149.066406 45.960938 150.746094 45.535156 152.398438 45.117188 C 153.21875 44.890625 154.050781 44.734375 154.875 44.566406 C 155.695312 44.398438 156.507812 44.230469 157.316406 44.066406 C 158.125 43.902344 158.921875 43.742188 159.714844 43.578125 C 160.507812 43.410156 161.304688 43.320312 162.089844 43.1875 C 163.65625 42.945312 165.195312 42.710938 166.703125 42.476562 C 168.210938 42.273438 169.699219 42.144531 171.148438 41.984375 C 180.378906 41.023438 189.617188 40.960938 198.859375 41.796875 C 200.5 41.957031 201.960938 42.054688 203.222656 42.21875 C 204.480469 42.394531 205.546875 42.546875 206.410156 42.667969 C 208.132812 42.910156 209.042969 43.039062 209.042969 43.039062 Z M 209.042969 43.039062 " fill-opacity="1" fill-rule="nonzero"/>
    <path fill="#9fb0ff" d="M 239.476562 66.71875 L 237.238281 65.863281 C 236.507812 65.582031 235.601562 65.234375 234.535156 64.824219 C 234 64.628906 233.433594 64.382812 232.808594 64.179688 C 232.183594 63.976562 231.519531 63.761719 230.816406 63.53125 C 222.941406 60.847656 214.882812 58.96875 206.632812 57.902344 C 204.039062 57.628906 201.34375 57.214844 198.507812 57.097656 C 197.09375 57.015625 195.65625 56.878906 194.1875 56.839844 C 192.71875 56.816406 191.222656 56.792969 189.703125 56.765625 C 188.1875 56.703125 186.640625 56.820312 185.078125 56.855469 C 183.511719 56.910156 181.921875 56.925781 180.316406 57.09375 C 178.710938 57.230469 177.082031 57.34375 175.4375 57.503906 C 173.800781 57.71875 172.140625 57.933594 170.460938 58.152344 C 157.097656 60.171875 142.75 64.367188 129.238281 71.480469 C 122.375 75.054688 115.878906 79.203125 109.75 83.925781 C 103.558594 88.699219 97.84375 93.988281 92.613281 99.792969 C 87.425781 105.523438 82.816406 111.6875 78.785156 118.28125 C 74.886719 124.660156 71.546875 131.316406 68.765625 138.253906 C 66.132812 144.796875 64.070312 151.511719 62.585938 158.40625 C 61.792969 161.695312 61.339844 164.976562 60.804688 168.152344 C 60.453125 171.355469 60.019531 174.46875 59.894531 177.515625 C 59.628906 180.550781 59.671875 183.507812 59.609375 186.351562 C 59.613281 187.773438 59.699219 189.171875 59.734375 190.542969 C 59.757812 191.226562 59.78125 191.90625 59.800781 192.578125 C 59.8125 193.246094 59.902344 193.910156 59.949219 194.566406 C 60.054688 195.875 60.164062 197.15625 60.265625 198.410156 C 60.304688 199.035156 60.390625 199.652344 60.476562 200.261719 C 60.558594 200.867188 60.636719 201.46875 60.714844 202.0625 C 60.878906 203.246094 61.015625 204.402344 61.183594 205.523438 C 61.386719 206.636719 61.585938 207.71875 61.78125 208.769531 C 61.875 209.308594 61.972656 209.863281 62.070312 210.429688 C 62.117188 210.714844 62.160156 211 62.207031 211.285156 L 62.363281 212.132812 C 62.570312 213.214844 62.671875 214.304688 62.667969 215.402344 C 62.679688 216.332031 62.488281 217.21875 62.089844 218.058594 C 61.878906 218.433594 61.601562 218.753906 61.257812 219.011719 C 60.917969 219.273438 60.535156 219.453125 60.117188 219.558594 C 59.699219 219.660156 59.277344 219.671875 58.855469 219.601562 C 58.429688 219.527344 58.039062 219.371094 57.679688 219.136719 C 56.980469 218.65625 56.464844 217.859375 56.007812 216.894531 C 55.535156 215.835938 55.164062 214.738281 54.890625 213.609375 C 54.816406 213.316406 54.738281 213.019531 54.675781 212.71875 C 54.625 212.417969 54.574219 212.117188 54.519531 211.816406 C 54.425781 211.214844 54.332031 210.621094 54.242188 210.050781 C 54.074219 208.933594 53.898438 207.78125 53.71875 206.59375 C 53.574219 205.40625 53.464844 204.175781 53.328125 202.917969 C 53.265625 202.289062 53.199219 201.648438 53.132812 201.003906 C 53.0625 200.359375 52.992188 199.707031 52.96875 199.042969 C 52.898438 197.714844 52.824219 196.359375 52.75 194.96875 C 52.722656 194.273438 52.648438 193.574219 52.65625 192.867188 C 52.652344 192.15625 52.648438 191.441406 52.644531 190.714844 C 52.648438 189.269531 52.605469 187.792969 52.644531 186.292969 C 52.792969 183.292969 52.839844 180.179688 53.207031 176.992188 C 53.433594 173.789062 53.976562 170.53125 54.441406 167.175781 C 55.09375 163.855469 55.671875 160.429688 56.597656 157.003906 C 58.347656 149.847656 60.695312 142.886719 63.632812 136.128906 C 66.722656 128.992188 70.386719 122.164062 74.617188 115.640625 C 78.980469 108.925781 83.925781 102.671875 89.457031 96.878906 C 94.96875 91.089844 100.953125 85.832031 107.410156 81.109375 C 113.863281 76.386719 120.6875 72.277344 127.878906 68.777344 C 141.894531 61.875 156.613281 57.996094 170.214844 56.3125 C 171.921875 56.132812 173.609375 55.957031 175.273438 55.785156 C 176.945312 55.667969 178.597656 55.597656 180.226562 55.5 C 181.851562 55.375 183.460938 55.402344 185.046875 55.386719 C 186.628906 55.394531 188.191406 55.316406 189.726562 55.421875 C 191.257812 55.488281 192.765625 55.550781 194.25 55.613281 C 195.730469 55.695312 197.175781 55.871094 198.601562 55.988281 C 201.453125 56.183594 204.164062 56.671875 206.761719 57.015625 C 215.019531 58.304688 223.0625 60.402344 230.894531 63.304688 C 231.59375 63.550781 232.253906 63.785156 232.875 64.007812 C 233.492188 64.222656 234.054688 64.484375 234.585938 64.695312 C 235.640625 65.132812 236.539062 65.503906 237.261719 65.804688 Z M 239.476562 66.71875 " fill-opacity="1" fill-rule="nonzero"/>
    <path fill="#9fb0ff" d="M 289.6875 215.851562 C 289.6875 215.851562 289.84375 215.203125 290.148438 213.980469 C 290.296875 213.367188 290.484375 212.613281 290.703125 211.71875 C 290.914062 210.824219 291.089844 209.777344 291.324219 208.609375 C 292.597656 202.039062 293.222656 195.40625 293.203125 188.710938 C 293.191406 187.660156 293.210938 186.585938 293.171875 185.492188 C 293.113281 184.398438 293.054688 183.28125 292.996094 182.140625 C 292.957031 181.570312 292.949219 180.996094 292.886719 180.417969 C 292.828125 179.839844 292.769531 179.253906 292.710938 178.667969 C 292.578125 177.492188 292.5 176.289062 292.316406 175.078125 C 291.625 169.933594 290.570312 164.863281 289.15625 159.871094 C 285.914062 148.535156 280.914062 138.039062 274.160156 128.375 C 267.148438 118.28125 257.941406 109.234375 247.566406 102.171875 C 242.421875 98.648438 237.003906 95.613281 231.3125 93.066406 C 225.800781 90.613281 220.121094 88.648438 214.273438 87.164062 C 213.5625 86.992188 212.851562 86.816406 212.144531 86.644531 L 211.085938 86.386719 L 210.019531 86.179688 C 208.597656 85.910156 207.191406 85.621094 205.792969 85.382812 C 204.386719 85.179688 202.992188 84.984375 201.609375 84.785156 C 200.226562 84.605469 198.847656 84.515625 197.488281 84.378906 C 196.128906 84.226562 194.777344 84.195312 193.445312 84.132812 C 192.777344 84.105469 192.113281 84.078125 191.453125 84.046875 C 190.796875 84.011719 190.140625 84.042969 189.488281 84.039062 C 188.183594 84.054688 186.898438 84.035156 185.632812 84.078125 C 184.367188 84.148438 183.117188 84.214844 181.890625 84.28125 C 181.582031 84.296875 181.277344 84.316406 180.972656 84.332031 C 180.667969 84.363281 180.363281 84.394531 180.0625 84.425781 L 178.269531 84.609375 C 177.082031 84.726562 175.917969 84.835938 174.78125 85.027344 C 173.640625 85.199219 172.527344 85.371094 171.429688 85.535156 C 170.339844 85.730469 169.277344 85.957031 168.234375 86.164062 C 166.140625 86.539062 164.183594 87.097656 162.304688 87.554688 C 161.363281 87.769531 160.46875 88.078125 159.589844 88.332031 C 158.714844 88.597656 157.863281 88.855469 157.039062 89.105469 C 155.367188 89.675781 153.457031 90.351562 151.832031 90.554688 C 150.230469 90.816406 148.890625 90.589844 148.355469 89.265625 C 147.824219 87.941406 148.679688 86.847656 150.121094 85.914062 C 151.582031 85.042969 153.621094 84.367188 155.394531 83.816406 C 163.960938 81.304688 172.699219 79.84375 181.613281 79.429688 C 182.902344 79.394531 184.207031 79.355469 185.535156 79.320312 C 186.859375 79.304688 188.207031 79.359375 189.566406 79.378906 C 190.246094 79.402344 190.933594 79.386719 191.621094 79.441406 C 192.308594 79.488281 193 79.535156 193.695312 79.582031 C 195.085938 79.679688 196.496094 79.75 197.910156 79.945312 C 199.324219 80.121094 200.757812 80.253906 202.195312 80.476562 C 203.625 80.714844 205.074219 80.960938 206.535156 81.203125 C 207.984375 81.488281 209.441406 81.828125 210.910156 82.144531 L 212.011719 82.386719 L 213.109375 82.679688 C 213.839844 82.878906 214.574219 83.078125 215.308594 83.277344 C 221.332031 84.960938 227.167969 87.144531 232.816406 89.824219 C 238.621094 92.59375 244.132812 95.863281 249.351562 99.625 C 259.855469 107.15625 269.0625 116.664062 275.972656 127.136719 C 282.605469 137.125 287.433594 147.917969 290.457031 159.515625 C 291.765625 164.597656 292.710938 169.746094 293.285156 174.960938 C 293.441406 176.1875 293.492188 177.402344 293.597656 178.589844 C 293.644531 179.1875 293.6875 179.773438 293.734375 180.359375 C 293.78125 180.941406 293.777344 181.523438 293.800781 182.097656 C 293.832031 183.246094 293.867188 184.375 293.898438 185.476562 C 293.910156 186.582031 293.867188 187.660156 293.851562 188.71875 C 293.714844 195.4375 292.929688 202.078125 291.496094 208.644531 C 291.234375 209.808594 291.03125 210.851562 290.800781 211.742188 C 290.558594 212.628906 290.355469 213.382812 290.191406 213.992188 C 289.859375 215.207031 289.6875 215.851562 289.6875 215.851562 Z M 289.6875 215.851562 " fill-opacity="1" fill-rule="nonzero"/>
    <path fill="#bf9fff" d="M 269.910156 235.589844 C 269.910156 235.589844 270.191406 235.058594 270.726562 234.058594 C 270.996094 233.558594 271.324219 232.9375 271.714844 232.207031 C 271.90625 231.839844 272.136719 231.457031 272.335938 231.027344 C 272.539062 230.59375 272.753906 230.136719 272.980469 229.652344 C 275.621094 224.238281 277.699219 218.613281 279.207031 212.78125 C 279.636719 210.945312 280.175781 209.042969 280.515625 207.015625 C 280.703125 206.007812 280.929688 204.988281 281.089844 203.9375 C 281.242188 202.882812 281.390625 201.8125 281.546875 200.722656 C 281.726562 199.636719 281.785156 198.515625 281.898438 197.386719 C 282 196.257812 282.132812 195.113281 282.15625 193.945312 C 282.199219 192.78125 282.265625 191.601562 282.300781 190.402344 C 282.292969 189.207031 282.285156 187.996094 282.277344 186.769531 C 282.027344 176.984375 280.296875 166.300781 276.394531 155.953125 C 272.4375 145.304688 266.746094 135.683594 259.3125 127.089844 C 251.964844 118.519531 243.007812 111.597656 233.777344 106.496094 C 229.308594 104.015625 224.660156 101.933594 219.832031 100.246094 C 217.539062 99.378906 215.21875 98.757812 212.980469 98.085938 C 210.703125 97.546875 208.503906 96.957031 206.324219 96.59375 C 204.164062 96.128906 202.03125 95.894531 199.988281 95.59375 C 198.964844 95.46875 197.953125 95.402344 196.964844 95.304688 C 195.972656 95.214844 195.003906 95.117188 194.050781 95.097656 C 193.097656 95.058594 192.164062 95.019531 191.253906 94.984375 C 190.34375 94.933594 189.453125 94.984375 188.585938 94.976562 C 187.71875 94.988281 186.871094 94.980469 186.050781 95 C 185.230469 95.046875 184.4375 95.09375 183.664062 95.136719 C 182.871094 95.195312 182.019531 95.195312 181.1875 95.253906 C 180.394531 95.304688 179.601562 95.28125 178.808594 95.179688 C 178.140625 95.105469 177.519531 94.886719 176.949219 94.523438 C 176.699219 94.339844 176.496094 94.113281 176.335938 93.84375 C 176.179688 93.574219 176.085938 93.285156 176.050781 92.972656 C 176.011719 92.664062 176.039062 92.359375 176.132812 92.0625 C 176.222656 91.765625 176.367188 91.496094 176.570312 91.257812 C 176.976562 90.800781 177.597656 90.5 178.332031 90.257812 C 179.140625 90.015625 179.960938 89.847656 180.796875 89.753906 C 181.667969 89.660156 182.542969 89.609375 183.417969 89.609375 C 184.238281 89.585938 185.082031 89.5625 185.953125 89.539062 C 186.820312 89.542969 187.714844 89.574219 188.632812 89.59375 C 189.550781 89.625 190.492188 89.601562 191.453125 89.683594 L 194.40625 89.890625 C 195.410156 89.9375 196.433594 90.070312 197.476562 90.199219 C 198.515625 90.332031 199.582031 90.429688 200.660156 90.59375 C 202.804688 90.972656 205.039062 91.285156 207.300781 91.835938 C 209.585938 92.285156 211.882812 92.96875 214.253906 93.605469 C 216.585938 94.371094 219 95.09375 221.378906 96.066406 C 226.375 97.96875 231.171875 100.28125 235.769531 103 C 245.242188 108.578125 254.339844 116.027344 261.691406 125.082031 C 269.09375 134.121094 274.683594 144.167969 278.460938 155.21875 C 282.167969 165.90625 283.636719 176.832031 283.625 186.757812 C 283.601562 188 283.574219 189.226562 283.550781 190.441406 C 283.484375 191.652344 283.386719 192.847656 283.308594 194.023438 C 283.253906 195.203125 283.089844 196.359375 282.957031 197.5 C 282.8125 198.636719 282.726562 199.765625 282.511719 200.855469 C 282.328125 201.953125 282.144531 203.03125 281.96875 204.089844 C 281.777344 205.144531 281.519531 206.171875 281.304688 207.183594 C 280.910156 209.214844 280.316406 211.117188 279.832031 212.957031 C 278.164062 218.769531 275.933594 224.363281 273.140625 229.730469 C 272.898438 230.210938 272.671875 230.664062 272.457031 231.089844 C 272.242188 231.515625 272.003906 231.894531 271.804688 232.257812 C 271.394531 232.976562 271.046875 233.585938 270.765625 234.082031 C 270.207031 235.066406 269.910156 235.589844 269.910156 235.589844 Z M 269.910156 235.589844 " fill-opacity="1" fill-rule="nonzero"/>
    <path fill="#ffa4a4" d="M 85.625 159.140625 C 85.625 159.140625 85.464844 159.785156 85.164062 161.011719 C 85.011719 161.621094 84.828125 162.378906 84.609375 163.273438 C 84.398438 164.167969 84.21875 165.210938 83.984375 166.378906 C 82.714844 172.953125 82.085938 179.585938 82.105469 186.28125 C 82.117188 187.328125 82.101562 188.402344 82.140625 189.5 C 82.195312 190.59375 82.253906 191.710938 82.3125 192.851562 C 82.351562 193.417969 82.359375 193.996094 82.421875 194.574219 C 82.480469 195.152344 82.539062 195.734375 82.597656 196.324219 C 82.730469 197.5 82.808594 198.703125 82.992188 199.914062 C 83.683594 205.058594 84.738281 210.125 86.152344 215.121094 C 89.398438 226.453125 94.394531 236.953125 101.148438 246.617188 C 108.164062 256.707031 117.371094 265.757812 127.742188 272.820312 C 132.886719 276.34375 138.304688 279.378906 144 281.925781 C 149.507812 284.375 155.1875 286.34375 161.035156 287.824219 C 161.746094 288 162.457031 288.171875 163.164062 288.347656 L 164.226562 288.605469 L 165.292969 288.8125 C 166.714844 289.078125 168.117188 289.371094 169.519531 289.609375 C 170.925781 289.808594 172.320312 290.007812 173.699219 290.203125 C 175.082031 290.382812 176.464844 290.476562 177.820312 290.609375 C 179.179688 290.765625 180.53125 290.796875 181.867188 290.855469 C 182.535156 290.886719 183.195312 290.914062 183.855469 290.941406 C 184.515625 290.976562 185.171875 290.945312 185.820312 290.953125 C 187.125 290.9375 188.410156 290.957031 189.675781 290.910156 C 190.945312 290.84375 192.191406 290.777344 193.421875 290.710938 C 193.726562 290.695312 194.035156 290.675781 194.339844 290.65625 C 194.644531 290.625 194.945312 290.597656 195.246094 290.566406 C 195.851562 290.503906 196.449219 290.441406 197.039062 290.382812 C 198.226562 290.261719 199.394531 290.15625 200.53125 289.960938 C 201.667969 289.789062 202.785156 289.621094 203.878906 289.457031 C 204.972656 289.261719 206.035156 289.03125 207.078125 288.828125 C 209.167969 288.453125 211.128906 287.890625 213.007812 287.4375 C 213.949219 287.222656 214.839844 286.910156 215.71875 286.660156 C 216.59375 286.394531 217.445312 286.136719 218.269531 285.886719 C 219.941406 285.316406 221.851562 284.640625 223.476562 284.433594 C 225.078125 284.171875 226.421875 284.402344 226.953125 285.726562 C 227.484375 287.046875 226.628906 288.144531 225.1875 289.074219 C 223.726562 289.945312 221.6875 290.621094 219.914062 291.171875 C 211.351562 293.6875 202.613281 295.148438 193.695312 295.5625 C 192.410156 295.597656 191.101562 295.632812 189.773438 295.671875 C 188.449219 295.683594 187.105469 295.632812 185.742188 295.613281 C 185.0625 295.589844 184.378906 295.605469 183.691406 295.550781 C 183.003906 295.503906 182.3125 295.457031 181.613281 295.410156 C 180.222656 295.308594 178.816406 295.238281 177.402344 295.046875 C 175.988281 294.871094 174.554688 294.738281 173.117188 294.515625 C 171.683594 294.273438 170.238281 294.03125 168.777344 293.785156 C 167.324219 293.5 165.871094 293.164062 164.398438 292.847656 L 163.296875 292.605469 L 162.203125 292.308594 C 161.472656 292.113281 160.738281 291.914062 160 291.714844 C 153.980469 290.027344 148.144531 287.847656 142.496094 285.164062 C 136.6875 282.394531 131.175781 279.128906 125.957031 275.367188 C 115.457031 267.835938 106.25 258.324219 99.339844 247.855469 C 92.707031 237.867188 87.875 227.074219 84.851562 215.472656 C 83.542969 210.394531 82.601562 205.246094 82.023438 200.027344 C 81.867188 198.804688 81.816406 197.585938 81.710938 196.398438 C 81.667969 195.804688 81.621094 195.214844 81.578125 194.632812 C 81.527344 194.046875 81.535156 193.464844 81.507812 192.890625 C 81.476562 191.742188 81.445312 190.617188 81.414062 189.511719 C 81.398438 188.410156 81.445312 187.328125 81.457031 186.273438 C 81.597656 179.554688 82.382812 172.910156 83.8125 166.34375 C 84.074219 165.179688 84.277344 164.140625 84.511719 163.25 C 84.75 162.359375 84.953125 161.609375 85.117188 161 C 85.449219 159.78125 85.625 159.140625 85.625 159.140625 Z M 85.625 159.140625 " fill-opacity="1" fill-rule="nonzero"/>
    <path fill="#bf9fff" d="M 105.402344 139.402344 C 105.402344 139.402344 105.117188 139.929688 104.582031 140.933594 C 104.316406 141.433594 103.984375 142.050781 103.59375 142.78125 C 103.402344 143.148438 103.175781 143.53125 102.972656 143.964844 C 102.773438 144.394531 102.554688 144.851562 102.328125 145.339844 C 99.6875 150.753906 97.613281 156.375 96.101562 162.207031 C 95.671875 164.046875 95.132812 165.949219 94.792969 167.972656 C 94.609375 168.984375 94.378906 170.003906 94.21875 171.054688 C 94.070312 172.109375 93.917969 173.179688 93.765625 174.269531 C 93.582031 175.355469 93.527344 176.476562 93.410156 177.601562 C 93.308594 178.734375 93.175781 179.875 93.152344 181.042969 C 93.109375 182.210938 93.042969 183.390625 93.011719 184.585938 C 93.015625 185.785156 93.023438 186.996094 93.03125 188.21875 C 93.28125 198.003906 95.011719 208.691406 98.914062 219.039062 C 102.871094 229.6875 108.566406 239.308594 115.996094 247.902344 C 123.34375 256.46875 132.300781 263.390625 141.53125 268.496094 C 146.003906 270.972656 150.652344 273.058594 155.476562 274.746094 C 157.773438 275.609375 160.09375 276.230469 162.332031 276.902344 C 164.605469 277.441406 166.804688 278.035156 168.984375 278.398438 C 171.144531 278.859375 173.277344 279.09375 175.320312 279.394531 C 176.34375 279.523438 177.359375 279.585938 178.347656 279.683594 C 179.335938 279.777344 180.304688 279.875 181.261719 279.890625 C 182.214844 279.933594 183.144531 279.96875 184.054688 280.007812 C 184.964844 280.058594 185.859375 280.007812 186.726562 280.015625 C 187.59375 280.003906 188.4375 280.011719 189.257812 279.988281 C 190.078125 279.941406 190.875 279.898438 191.648438 279.851562 C 192.4375 279.796875 193.289062 279.792969 194.121094 279.738281 C 194.917969 279.6875 195.710938 279.710938 196.5 279.808594 C 197.171875 279.886719 197.792969 280.105469 198.359375 280.464844 C 198.613281 280.652344 198.816406 280.878906 198.972656 281.148438 C 199.128906 281.417969 199.226562 281.707031 199.261719 282.015625 C 199.296875 282.324219 199.269531 282.628906 199.179688 282.929688 C 199.089844 283.226562 198.941406 283.492188 198.738281 283.730469 C 198.332031 284.191406 197.710938 284.488281 196.976562 284.730469 C 196.171875 284.972656 195.347656 285.144531 194.511719 285.238281 C 193.640625 285.332031 192.769531 285.378906 191.890625 285.382812 C 191.074219 285.40625 190.226562 285.425781 189.359375 285.449219 C 188.488281 285.449219 187.59375 285.414062 186.675781 285.398438 C 185.757812 285.367188 184.816406 285.386719 183.855469 285.308594 L 180.90625 285.101562 C 179.898438 285.050781 178.875 284.917969 177.835938 284.792969 C 176.792969 284.660156 175.726562 284.558594 174.652344 284.394531 C 172.503906 284.019531 170.269531 283.707031 168.007812 283.15625 C 165.726562 282.707031 163.425781 282.023438 161.058594 281.386719 C 158.722656 280.617188 156.3125 279.894531 153.929688 278.925781 C 148.9375 277.019531 144.140625 274.710938 139.539062 271.992188 C 130.066406 266.410156 120.96875 258.964844 113.617188 249.90625 C 106.214844 240.867188 100.625 230.824219 96.847656 219.773438 C 93.140625 209.082031 91.671875 198.160156 91.683594 188.230469 C 91.710938 186.992188 91.734375 185.761719 91.757812 184.550781 C 91.824219 183.339844 91.921875 182.144531 92 180.964844 C 92.054688 179.785156 92.21875 178.632812 92.351562 177.492188 C 92.5 176.355469 92.585938 175.226562 92.796875 174.132812 C 92.984375 173.039062 93.164062 171.960938 93.34375 170.902344 C 93.535156 169.84375 93.789062 168.820312 94.003906 167.808594 C 94.402344 165.773438 94.996094 163.871094 95.476562 162.035156 C 97.144531 156.21875 99.378906 150.628906 102.171875 145.261719 C 102.414062 144.78125 102.640625 144.328125 102.855469 143.902344 C 103.066406 143.476562 103.304688 143.097656 103.503906 142.734375 C 103.914062 142.015625 104.261719 141.40625 104.542969 140.910156 C 105.105469 139.921875 105.402344 139.402344 105.402344 139.402344 Z M 105.402344 139.402344 " fill-opacity="1" fill-rule="nonzero"/>
</svg>