<svg xmlns="http://www.w3.org/2000/svg" xmlns:xlink="http://www.w3.org/1999/xlink" width="500" zoomAndPan="magnify" viewBox="0 0 375 374.999991" height="500" preserveAspectRatio="xMidYMid meet" version="1.0"><defs><clipPath id="336f2ff96f"><path d="M 24.410156 179 L 186 179 L 186 341 L 24.410156 341 Z M 24.410156 179 " clip-rule="nonzero"/></clipPath><clipPath id="5087c3852c"><path d="M 189 34 L 350.660156 34 L 350.660156 196 L 189 196 Z M 189 34 " clip-rule="nonzero"/></clipPath><clipPath id="853b28125f"><path d="M 184 184 L 341 184 L 341 351 L 184 351 Z M 184 184 " clip-rule="nonzero"/></clipPath><clipPath id="a454e55acc"><path d="M 36.941406 355.707031 L 26.046875 29.636719 L 337.871094 19.21875 L 348.769531 345.285156 Z M 36.941406 355.707031 " clip-rule="nonzero"/></clipPath><clipPath id="9dc418629b"><path d="M 36.941406 355.707031 L 26.046875 29.636719 L 337.871094 19.21875 L 348.769531 345.285156 Z M 36.941406 355.707031 " clip-rule="nonzero"/></clipPath><clipPath id="8224b4fb9a"><path d="M 36.941406 355.707031 L 26.046875 29.636719 L 337.871094 19.21875 L 348.769531 345.285156 Z M 36.941406 355.707031 " clip-rule="nonzero"/></clipPath><clipPath id="9406bae48d"><path d="M 33 24 L 190 24 L 190 191 L 33 191 Z M 33 24 " clip-rule="nonzero"/></clipPath><clipPath id="254a03ff87"><path d="M 36.941406 355.707031 L 26.046875 29.636719 L 337.871094 19.21875 L 348.769531 345.285156 Z M 36.941406 355.707031 " clip-rule="nonzero"/></clipPath><clipPath id="aebbde3225"><path d="M 36.941406 355.707031 L 26.046875 29.636719 L 337.871094 19.21875 L 348.769531 345.285156 Z M 36.941406 355.707031 " clip-rule="nonzero"/></clipPath><clipPath id="65b90353a7"><path d="M 36.941406 355.707031 L 26.046875 29.636719 L 337.871094 19.21875 L 348.769531 345.285156 Z M 36.941406 355.707031 " clip-rule="nonzero"/></clipPath><clipPath id="7c20819f3b"><path d="M 111 52 L 303 52 L 303 126 L 111 126 Z M 111 52 " clip-rule="nonzero"/></clipPath><clipPath id="a21f1a7c8b"><path d="M 36.941406 355.707031 L 26.046875 29.636719 L 337.871094 19.21875 L 348.769531 345.285156 Z M 36.941406 355.707031 " clip-rule="nonzero"/></clipPath><clipPath id="0396468c49"><path d="M 36.941406 355.707031 L 26.046875 29.636719 L 337.871094 19.21875 L 348.769531 345.285156 Z M 36.941406 355.707031 " clip-rule="nonzero"/></clipPath><clipPath id="cc46f0c106"><path d="M 36.941406 355.707031 L 26.046875 29.636719 L 337.871094 19.21875 L 348.769531 345.285156 Z M 36.941406 355.707031 " clip-rule="nonzero"/></clipPath><clipPath id="c782fcd619"><path d="M 65 249 L 256 249 L 256 323 L 65 323 Z M 65 249 " clip-rule="nonzero"/></clipPath><clipPath id="5f2b5e6afd"><path d="M 36.941406 355.707031 L 26.046875 29.636719 L 337.871094 19.21875 L 348.769531 345.285156 Z M 36.941406 355.707031 " clip-rule="nonzero"/></clipPath><clipPath id="81b66cdbf3"><path d="M 36.941406 355.707031 L 26.046875 29.636719 L 337.871094 19.21875 L 348.769531 345.285156 Z M 36.941406 355.707031 " clip-rule="nonzero"/></clipPath><clipPath id="dec9b87179"><path d="M 36.941406 355.707031 L 26.046875 29.636719 L 337.871094 19.21875 L 348.769531 345.285156 Z M 36.941406 355.707031 " clip-rule="nonzero"/></clipPath><clipPath id="381360a98b"><path d="M 243 102 L 309 102 L 309 264 L 243 264 Z M 243 102 " clip-rule="nonzero"/></clipPath><clipPath id="51c67d87eb"><path d="M 36.941406 355.707031 L 26.046875 29.636719 L 337.871094 19.21875 L 348.769531 345.285156 Z M 36.941406 355.707031 " clip-rule="nonzero"/></clipPath><clipPath id="f87bda08a7"><path d="M 36.941406 355.707031 L 26.046875 29.636719 L 337.871094 19.21875 L 348.769531 345.285156 Z M 36.941406 355.707031 " clip-rule="nonzero"/></clipPath><clipPath id="44394341cc"><path d="M 36.941406 355.707031 L 26.046875 29.636719 L 337.871094 19.21875 L 348.769531 345.285156 Z M 36.941406 355.707031 " clip-rule="nonzero"/></clipPath><clipPath id="b2c613cc88"><path d="M 66 119 L 132 119 L 132 281 L 66 281 Z M 66 119 " clip-rule="nonzero"/></clipPath><clipPath id="05c82c706e"><path d="M 36.941406 355.707031 L 26.046875 29.636719 L 337.871094 19.21875 L 348.769531 345.285156 Z M 36.941406 355.707031 " clip-rule="nonzero"/></clipPath><clipPath id="774d74366e"><path d="M 36.941406 355.707031 L 26.046875 29.636719 L 337.871094 19.21875 L 348.769531 345.285156 Z M 36.941406 355.707031 " clip-rule="nonzero"/></clipPath><clipPath id="21e333c7fd"><path d="M 36.941406 355.707031 L 26.046875 29.636719 L 337.871094 19.21875 L 348.769531 345.285156 Z M 36.941406 355.707031 " clip-rule="nonzero"/></clipPath><clipPath id="f9abdf6405"><path d="M 89 79 L 172 79 L 172 198 L 89 198 Z M 89 79 " clip-rule="nonzero"/></clipPath><clipPath id="e778420465"><path d="M 36.941406 355.707031 L 26.046875 29.636719 L 337.871094 19.21875 L 348.769531 345.285156 Z M 36.941406 355.707031 " clip-rule="nonzero"/></clipPath><clipPath id="ef271237c3"><path d="M 36.941406 355.707031 L 26.046875 29.636719 L 337.871094 19.21875 L 348.769531 345.285156 Z M 36.941406 355.707031 " clip-rule="nonzero"/></clipPath><clipPath id="c48d7d201e"><path d="M 36.941406 355.707031 L 26.046875 29.636719 L 337.871094 19.21875 L 348.769531 345.285156 Z M 36.941406 355.707031 " clip-rule="nonzero"/></clipPath><clipPath id="45c2350644"><path d="M 202 177 L 285 177 L 285 296 L 202 296 Z M 202 177 " clip-rule="nonzero"/></clipPath><clipPath id="995b1f69b5"><path d="M 36.941406 355.707031 L 26.046875 29.636719 L 337.871094 19.21875 L 348.769531 345.285156 Z M 36.941406 355.707031 " clip-rule="nonzero"/></clipPath><clipPath id="9e4cd16253"><path d="M 36.941406 355.707031 L 26.046875 29.636719 L 337.871094 19.21875 L 348.769531 345.285156 Z M 36.941406 355.707031 " clip-rule="nonzero"/></clipPath><clipPath id="e44d2ef799"><path d="M 36.941406 355.707031 L 26.046875 29.636719 L 337.871094 19.21875 L 348.769531 345.285156 Z M 36.941406 355.707031 " clip-rule="nonzero"/></clipPath></defs>

    <g clip-path="url(#336f2ff96f)">
        <path fill="#fff" d="M 183.851562 340.5625 C 98.496094 343.359375 25.753906 272.554688 24.488281 187.382812 C 24.382812 183.195312 27.699219 179.71875 31.890625 179.613281 C 36.214844 179.496094 39.789062 183.074219 39.664062 187.394531 C 36.90625 267.710938 103.582031 336.214844 183.851562 337.53125 C 184.6875 337.550781 185.351562 338.246094 185.332031 339.085938 C 185.308594 339.894531 184.652344 340.542969 183.851562 340.5625 Z M 183.851562 340.5625 " fill-opacity="1" fill-rule="nonzero"/>
    </g>
    <g clip-path="url(#5087c3852c)">
        <path fill="#fff" d="M 191.199219 34.230469 C 276.550781 31.433594 349.292969 102.238281 350.5625 187.410156 C 350.664062 191.597656 347.351562 195.074219 343.160156 195.179688 C 338.832031 195.296875 335.261719 191.71875 335.386719 187.394531 C 338.144531 107.082031 271.46875 38.578125 191.199219 37.261719 C 190.363281 37.242188 189.699219 36.546875 189.71875 35.707031 C 189.738281 34.898438 190.398438 34.25 191.199219 34.230469 Z M 191.199219 34.230469 " fill-opacity="1" fill-rule="nonzero"/>
        </g>
        <path fill="#fff" d="M 302.625 115.671875 C 342.203125 179.011719 320.40625 265.097656 256.429688 303.421875 C 253.214844 305.394531 249.007812 304.382812 247.035156 301.167969 C 244.984375 297.851562 246.175781 293.441406 249.613281 291.597656 C 311.800781 258.660156 334.667969 178.222656 300.652344 116.8125 C 300.351562 116.257812 300.558594 115.566406 301.109375 115.269531 C 301.644531 114.980469 302.308594 115.164062 302.625 115.671875 Z M 302.625 115.671875 " fill-opacity="1" fill-rule="nonzero"/>
        <path fill="#fff" d="M 72.664062 251.535156 C 33.085938 188.199219 54.882812 102.113281 118.859375 63.789062 C 122.074219 61.816406 126.28125 62.824219 128.253906 66.039062 C 130.304688 69.359375 129.113281 73.769531 125.675781 75.613281 C 63.488281 108.546875 40.621094 188.988281 74.636719 250.398438 C 74.9375 250.953125 74.730469 251.640625 74.179688 251.941406 C 73.644531 252.230469 72.980469 252.046875 72.664062 251.535156 Z M 72.664062 251.535156 " fill-opacity="1" fill-rule="nonzero"/>
        <path fill="#fff" d="M 270.6875 247.417969 C 240.726562 304 167.445312 324.824219 111.488281 293.917969 C 108.535156 292.324219 107.433594 288.644531 109.027344 285.695312 C 110.671875 282.628906 114.617188 281.578125 117.570312 283.417969 C 154.261719 306.703125 204.429688 304.546875 239.484375 278.761719 C 251.371094 270.226562 261.582031 259.25 269.375 246.660156 C 269.59375 246.304688 270.0625 246.195312 270.417969 246.414062 C 270.761719 246.625 270.875 247.070312 270.6875 247.417969 Z M 270.6875 247.417969 " fill-opacity="1" fill-rule="nonzero"/>
        <path fill="#fff" d="M 97.011719 127.371094 C 126.976562 70.789062 200.253906 49.96875 256.214844 80.875 C 259.164062 82.46875 260.265625 86.148438 258.671875 89.097656 C 257.027344 92.164062 253.082031 93.214844 250.128906 91.375 C 213.441406 68.089844 163.269531 70.246094 128.214844 96.03125 C 116.332031 104.566406 106.117188 115.542969 98.328125 128.132812 C 98.105469 128.488281 97.640625 128.597656 97.28125 128.378906 C 96.9375 128.167969 96.824219 127.722656 97.011719 127.371094 Z M 97.011719 127.371094 " fill-opacity="1" fill-rule="nonzero"/>
        <path fill="#fff" d="M 181.058594 92.480469 C 233.230469 81.105469 285.859375 116.613281 296.246094 168.832031 C 296.847656 171.699219 295.003906 174.515625 292.132812 175.117188 C 289.140625 175.753906 286.199219 173.683594 285.78125 170.65625 C 281.136719 134.789062 252.984375 103.886719 217.777344 95.222656 C 205.953125 92.167969 193.445312 91.488281 181.1875 93.226562 C 180.980469 93.257812 180.789062 93.113281 180.757812 92.90625 C 180.730469 92.707031 180.863281 92.519531 181.058594 92.480469 Z M 181.058594 92.480469 " fill-opacity="1" fill-rule="nonzero"/>
        <path fill="#fff" d="M 194.234375 282.3125 C 142.058594 293.6875 89.429688 258.179688 79.042969 205.960938 C 78.441406 203.09375 80.285156 200.277344 83.15625 199.675781 C 86.148438 199.039062 89.089844 201.109375 89.507812 204.136719 C 94.152344 240.003906 122.304688 270.90625 157.511719 279.570312 C 169.335938 282.625 181.84375 283.304688 194.101562 281.566406 C 194.308594 281.535156 194.5 281.679688 194.53125 281.886719 C 194.558594 282.085938 194.425781 282.273438 194.234375 282.3125 Z M 194.234375 282.3125 " fill-opacity="1" fill-rule="nonzero"/>
        <g clip-path="url(#853b28125f)">
            <g clip-path="url(#a454e55acc)">
                <g clip-path="url(#9dc418629b)">
                    <g clip-path="url(#8224b4fb9a)">
                        <path fill="#fff" d="M 340.597656 186.03125 C 346.242188 271.242188 277.90625 346.308594 192.824219 350.421875 C 188.640625 350.664062 185.054688 347.46875 184.8125 343.28125 C 184.546875 338.960938 188.007812 335.269531 192.332031 335.25 C 272.691406 335.328125 338.933594 266.402344 337.566406 186.132812 C 337.558594 185.292969 338.230469 184.609375 339.070312 184.601562 C 339.878906 184.59375 340.546875 185.230469 340.597656 186.03125 Z M 340.597656 186.03125 " fill-opacity="1" fill-rule="nonzero"/>
                    </g>
                </g>
            </g>
        </g>
        <g clip-path="url(#9406bae48d)">
            <g clip-path="url(#254a03ff87)">
                <g clip-path="url(#aebbde3225)">
                    <g clip-path="url(#65b90353a7)">
                        <path fill="#fff" d="M 34.1875 188.917969 C 28.542969 103.703125 96.878906 28.636719 181.960938 24.527344 C 186.144531 24.285156 189.730469 27.480469 189.972656 31.664062 C 190.234375 35.984375 186.777344 39.675781 182.453125 39.695312 C 102.09375 39.621094 35.851562 108.546875 37.21875 188.816406 C 37.226562 189.652344 36.554688 190.339844 35.714844 190.347656 C 34.90625 190.351562 34.238281 189.714844 34.1875 188.917969 Z M 34.1875 188.917969 " fill-opacity="1" fill-rule="nonzero"/>
                    </g>
                </g>
            </g>
        </g>
        <g clip-path="url(#7c20819f3b)">
            <g clip-path="url(#a21f1a7c8b)">
                <g clip-path="url(#0396468c49)">
                    <g clip-path="url(#cc46f0c106)">
                        <path fill="#fff" d="M 111.867188 74.835938 C 173.847656 33.160156 260.613281 52.070312 301.050781 114.730469 C 303.128906 117.878906 302.261719 122.117188 299.113281 124.195312 C 295.867188 126.355469 291.417969 125.3125 289.460938 121.9375 C 254.46875 60.886719 173.308594 40.71875 113.066406 76.765625 C 112.527344 77.085938 111.828125 76.902344 111.511719 76.359375 C 111.203125 75.835938 111.367188 75.167969 111.867188 74.835938 Z M 111.867188 74.835938 " fill-opacity="1" fill-rule="nonzero"/>
                    </g>
                </g>
            </g>
        </g>
        <g clip-path="url(#c782fcd619)">
            <g clip-path="url(#5f2b5e6afd)">
                <g clip-path="url(#81b66cdbf3)">
                    <g clip-path="url(#dec9b87179)">
                        <path fill="#fff" d="M 255.332031 300.125 C 193.351562 341.800781 106.585938 322.890625 66.144531 260.230469 C 64.070312 257.082031 64.9375 252.84375 68.085938 250.765625 C 71.332031 248.605469 75.78125 249.648438 77.738281 253.023438 C 112.730469 314.074219 193.890625 334.242188 254.128906 298.195312 C 254.671875 297.875 255.371094 298.058594 255.6875 298.601562 C 255.996094 299.125 255.832031 299.796875 255.332031 300.125 Z M 255.332031 300.125 " fill-opacity="1" fill-rule="nonzero"/>
                        </g>
                    </g>
                </g>
            </g>
        <g clip-path="url(#381360a98b)">
            <g clip-path="url(#51c67d87eb)">
                <g clip-path="url(#f87bda08a7)">
                    <g clip-path="url(#44394341cc)">
                        <path fill="#fff" d="M 244.605469 102.351562 C 302.15625 130.410156 325.414062 202.953125 296.394531 259.910156 C 294.902344 262.914062 291.257812 264.136719 288.257812 262.644531 C 285.136719 261.101562 283.957031 257.195312 285.695312 254.183594 C 307.742188 216.734375 303.914062 166.664062 276.96875 132.492188 C 268.046875 120.898438 256.734375 111.058594 243.890625 103.691406 C 243.527344 103.484375 243.402344 103.019531 243.609375 102.65625 C 243.808594 102.304688 244.25 102.175781 244.605469 102.351562 Z M 244.605469 102.351562 " fill-opacity="1" fill-rule="nonzero"/>
                    </g>
                </g>
            </g>
        </g>
        <g clip-path="url(#b2c613cc88)">
            <g clip-path="url(#05c82c706e)">
                <g clip-path="url(#774d74366e)">
                    <g clip-path="url(#21e333c7fd)">
                        <path fill="#fff" d="M 130.425781 279.941406 C 72.875 251.882812 49.617188 179.339844 78.636719 122.378906 C 80.128906 119.378906 83.773438 118.15625 86.773438 119.648438 C 89.894531 121.1875 91.074219 125.097656 89.332031 128.109375 C 67.289062 165.558594 71.117188 215.625 98.058594 249.800781 C 106.984375 261.394531 118.296875 271.234375 131.140625 278.601562 C 131.503906 278.808594 131.628906 279.273438 131.421875 279.636719 C 131.222656 279.988281 130.78125 280.117188 130.425781 279.941406 Z M 130.425781 279.941406 " fill-opacity="1" fill-rule="nonzero"/>
                    </g>
                </g>
            </g>
        </g>
        <g clip-path="url(#f9abdf6405)">
            <g clip-path="url(#e778420465)">
                <g clip-path="url(#ef271237c3)">
                    <g clip-path="url(#c48d7d201e)">
                        <path fill="#fff" d="M 92.746094 197.109375 C 79.636719 145.34375 113.363281 91.558594 165.207031 79.433594 C 168.054688 78.734375 170.929688 80.484375 171.625 83.335938 C 172.363281 86.304688 170.394531 89.3125 167.382812 89.832031 C 131.691406 95.671875 101.742188 124.839844 94.257812 160.316406 C 91.601562 172.234375 91.339844 184.761719 93.488281 196.953125 C 93.523438 197.15625 93.386719 197.355469 93.179688 197.390625 C 92.980469 197.425781 92.792969 197.300781 92.746094 197.109375 Z M 92.746094 197.109375 " fill-opacity="1" fill-rule="nonzero"/>
                    </g>
                </g>
            </g>
        </g>
        <g clip-path="url(#45c2350644)">
            <g clip-path="url(#995b1f69b5)">
                <g clip-path="url(#9e4cd16253)">
                    <g clip-path="url(#e44d2ef799)">
                        <path fill="#fff" d="M 282.03125 177.597656 C 295.140625 229.363281 261.414062 283.148438 209.570312 295.273438 C 206.722656 295.972656 203.847656 294.226562 203.152344 291.371094 C 202.414062 288.402344 204.382812 285.394531 207.394531 284.875 C 243.085938 279.039062 273.035156 249.867188 280.515625 214.390625 C 283.175781 202.472656 283.4375 189.945312 281.289062 177.757812 C 281.253906 177.550781 281.390625 177.351562 281.597656 177.316406 C 281.792969 177.28125 281.984375 177.40625 282.03125 177.597656 Z M 282.03125 177.597656 " fill-opacity="1" fill-rule="nonzero"/>
                    </g>
                </g>
            </g>
        </g>

<path stroke-linecap="butt" transform="matrix(0.75, 0, 0, 0.75, 0.0000045, 0)" fill="none" stroke-linejoin="miter" d="M -0.000006 0 L 500.000059 0 L 500.000059 500.000065 L -0.000006 500.000065 Z M -0.000006 0 " stroke="#fff" stroke-width="70" stroke-opacity="1" stroke-miterlimit="4"/>

</svg>